<?xml version="1.0" encoding="UTF-8" standalone="no"?>
<!-- Created with Inkscape (http://www.inkscape.org/) -->

<svg
   version="1.0"
   width="1000"
   height="925.397"
   id="svg1337"
   sodipodi:version="0.32"
   inkscape:version="1.1.1 (3bf5ae0d25, 2021-09-20)"
   sodipodi:docname="Emblem_of_East_African_Community.svg"
   xmlns:inkscape="http://www.inkscape.org/namespaces/inkscape"
   xmlns:sodipodi="http://sodipodi.sourceforge.net/DTD/sodipodi-0.dtd"
   xmlns:xlink="http://www.w3.org/1999/xlink"
   xmlns="http://www.w3.org/2000/svg"
   xmlns:svg="http://www.w3.org/2000/svg"
   xmlns:rdf="http://www.w3.org/1999/02/22-rdf-syntax-ns#"
   xmlns:cc="http://creativecommons.org/ns#"
   xmlns:dc="http://purl.org/dc/elements/1.1/">
  <metadata
     id="metadata1369">
    <rdf:RDF>
      <cc:Work
         rdf:about="">
        <dc:format>image/svg+xml</dc:format>
        <dc:type
           rdf:resource="http://purl.org/dc/dcmitype/StillImage" />
        <dc:title />
      </cc:Work>
    </rdf:RDF>
  </metadata>
  <sodipodi:namedview
     inkscape:window-height="1046"
     inkscape:window-width="1827"
     inkscape:pageshadow="2"
     inkscape:pageopacity="0.0"
     borderopacity="1.0"
     bordercolor="#666666"
     pagecolor="#ffffff"
     id="base"
     inkscape:zoom="0.5"
     inkscape:cx="444"
     inkscape:cy="692"
     inkscape:window-x="82"
     inkscape:window-y="-11"
     inkscape:current-layer="svg1337"
     showgrid="false"
     inkscape:window-maximized="1"
     fit-margin-top="0"
     fit-margin-left="0"
     fit-margin-right="0"
     fit-margin-bottom="0"
     inkscape:pagecheckerboard="0" />
  <defs
     id="defs1340" />
  <use
     transform="matrix(8.4976767,0,0,8.4976767,-2049.3023,-2033.0691)"
     id="use4024"
     x="0"
     y="0"
     width="600"
     height="330"
     xlink:href="#rect2276" />
  <path
     d="m 500.06419,4.9473186 c -220.60449,0 -399.74401,179.1395114 -399.74397,399.7439614 0,110.05598 44.5817,209.70038 116.63322,281.9976 L 45.775953,741.35682 61.483714,780.68805 6.3210266,792.43799 45.775953,920.45002 H 954.35243 L 993.68366,792.43799 938.52097,780.68805 954.35243,741.35682 783.05125,686.68888 C 855.10279,614.39166 899.68448,514.74731 899.68448,404.69128 899.68448,184.08679 720.66867,4.947279 500.06419,4.9473186 Z"
     style="fill:#ffffff;fill-opacity:1;fill-rule:nonzero;stroke:#000000;stroke-width:9.89464;stroke-miterlimit:4;stroke-opacity:1"
     id="path4073"
     inkscape:connector-curvature="0" />
  <path
     d="M 54.862728,794.82333 89.572856,907.4409 H 910.54067 l 34.60129,-112.61757 z"
     style="fill:#008300;fill-opacity:1;fill-rule:nonzero;stroke:none;stroke-width:3.95786"
     id="path6707"
     inkscape:connector-curvature="0" />
  <path
     d="m 76.511219,809.32724 25.726101,83.6098 h 202.71667 390.09669 202.71667 l 25.7261,-83.6098 H 720.65312 279.22789 Z"
     style="fill:#ffffff;fill-opacity:1;fill-rule:nonzero;stroke:none;stroke-width:3.95786"
     id="path8461"
     inkscape:connector-curvature="0" />
  <g
     aria-label="JUMUIYA YA AFRIKA MASHARIKI"
     transform="scale(0.945059,1.058135)"
     id="text8463"
     style="font-weight:bold;font-size:52.1213px;font-family:'Times New Roman';stroke-width:3.86792">
    <path
       d="m 140.81117,811.26492 q 0,2.65818 -0.62545,5.00364 -0.57334,2.34546 -2.08485,4.11758 -1.4594,1.72001 -4.01334,2.76243 -2.50183,0.99031 -6.3588,0.99031 -3.54425,0 -6.09819,-0.83394 -2.55395,-0.88607 -4.22183,-2.03273 l 2.71031,-6.30668 q 1.51152,0.88606 3.23152,1.56364 1.72,0.67758 3.75273,0.67758 2.97092,0 4.27395,-1.4594 1.30303,-1.4594 1.30303,-4.8994 v -23.55883 h 8.13092 z"
       style="-inkscape-font-specification:'Ubuntu Bold'"
       id="path4638" />
    <path
       d="m 162.75421,824.13888 q -3.80486,0 -6.56729,-1.04243 -2.76243,-1.09455 -4.58667,-2.97091 -1.77213,-1.92849 -2.65819,-4.53456 -0.83394,-2.65818 -0.83394,-5.83758 v -22.46428 h 8.13092 v 21.7867 q 0,2.1891 0.46909,3.75274 0.52122,1.51151 1.35516,2.50182 0.88606,0.93818 2.08485,1.35515 1.25091,0.41697 2.71031,0.41697 2.97091,0 4.79516,-1.82424 1.87636,-1.82425 1.87636,-6.20244 v -21.7867 h 8.13093 v 22.46428 q 0,3.1794 -0.88607,5.83758 -0.88606,2.65819 -2.7103,4.58668 -1.82425,1.87637 -4.6388,2.91879 -2.81455,1.04243 -6.67152,1.04243 z"
       style="-inkscape-font-specification:'Ubuntu Bold'"
       id="path4640" />
    <path
       d="m 195.06935,787.28912 q 0.93818,1.72 2.13697,4.27395 1.25091,2.50182 2.55395,5.47273 1.35515,2.91879 2.65818,5.99395 1.30304,3.07516 2.4497,5.78547 1.14667,-2.71031 2.4497,-5.78547 1.30304,-3.07516 2.60607,-5.99395 1.35515,-2.97091 2.55394,-5.47273 1.25091,-2.55395 2.1891,-4.27395 h 7.40122 q 0.52122,3.59637 0.93819,8.0788 0.46909,4.43031 0.78182,9.27759 0.36484,4.79516 0.62545,9.64244 0.31273,4.84728 0.52121,9.12123 h -7.92243 q -0.15637,-5.26425 -0.41697,-11.46669 -0.26061,-6.20243 -0.78182,-12.50911 -0.93819,2.1891 -2.08486,4.84728 -1.14666,2.65819 -2.29333,5.31638 -1.09455,2.65818 -2.13698,5.10788 -1.04242,2.39758 -1.77212,4.11759 h -5.68122 q -0.7297,-1.72001 -1.77213,-4.11759 -1.04242,-2.4497 -2.18909,-5.10788 -1.09455,-2.65819 -2.24122,-5.31638 -1.14666,-2.65818 -2.08485,-4.84728 -0.52121,6.30668 -0.78182,12.50911 -0.2606,6.20244 -0.41697,11.46669 h -7.92244 q 0.20849,-4.27395 0.4691,-9.12123 0.31272,-4.84728 0.62545,-9.64244 0.36485,-4.84728 0.78182,-9.27759 0.46909,-4.48243 0.99031,-8.0788 z"
       style="-inkscape-font-specification:'Ubuntu Bold'"
       id="path4642" />
    <path
       d="m 246.35668,824.13888 q -3.80486,0 -6.56728,-1.04243 -2.76243,-1.09455 -4.58668,-2.97091 -1.77212,-1.92849 -2.65818,-4.53456 -0.83395,-2.65818 -0.83395,-5.83758 v -22.46428 h 8.13093 v 21.7867 q 0,2.1891 0.46909,3.75274 0.52121,1.51151 1.35515,2.50182 0.88606,0.93818 2.08485,1.35515 1.25092,0.41697 2.71031,0.41697 2.97092,0 4.79516,-1.82424 1.87637,-1.82425 1.87637,-6.20244 v -21.7867 h 8.13092 v 22.46428 q 0,3.1794 -0.88606,5.83758 -0.88606,2.65819 -2.71031,4.58668 -1.82424,1.87637 -4.63879,2.91879 -2.81455,1.04243 -6.67153,1.04243 z"
       style="-inkscape-font-specification:'Ubuntu Bold'"
       id="path4644" />
    <path
       d="m 269.08149,787.28912 h 8.13093 v 36.12006 h -8.13093 z"
       style="-inkscape-font-specification:'Ubuntu Bold'"
       id="path4646" />
    <path
       d="m 298.79064,802.14369 q 2.18909,-3.70061 4.1697,-7.40123 1.98061,-3.70061 3.64849,-7.45334 h 8.96487 q -2.97092,5.83758 -6.15031,11.31032 -3.1794,5.47274 -6.72365,10.9976 v 13.81214 h -8.13093 v -13.7079 q -3.54424,-5.52486 -6.77576,-11.04972 -3.1794,-5.52486 -6.15032,-11.36244 h 9.43396 q 1.66788,3.75273 3.59637,7.45334 1.92849,3.70062 4.11758,7.40123 z"
       style="-inkscape-font-specification:'Ubuntu Bold'"
       id="path4648" />
    <path
       d="m 338.9761,823.40918 q -0.57333,-1.87637 -1.30303,-3.85698 -0.67758,-1.98061 -1.35515,-3.96122 h -14.07275 q -0.67758,1.98061 -1.40728,3.96122 -0.67758,1.98061 -1.25091,3.85698 h -8.44365 q 2.03273,-5.83759 3.85698,-10.78911 1.82424,-4.95152 3.54424,-9.32971 1.77213,-4.37819 3.44001,-8.28729 1.72,-3.96122 3.54425,-7.71395 h 7.76607 q 1.77213,3.75273 3.49213,7.71395 1.72,3.9091 3.44,8.28729 1.77213,4.37819 3.59637,9.32971 1.82425,4.95152 3.85698,10.78911 z m -9.74668,-27.93702 q -0.26061,0.78182 -0.78182,2.13698 -0.52121,1.35515 -1.19879,3.12727 -0.67758,1.77213 -1.51152,3.9091 -0.78182,2.13698 -1.61576,4.48243 h 10.2679 q -0.83394,-2.34545 -1.61576,-4.48243 -0.78182,-2.13697 -1.51152,-3.9091 -0.67758,-1.77212 -1.19879,-3.12727 -0.52121,-1.35516 -0.83394,-2.13698 z"
       style="-inkscape-font-specification:'Ubuntu Bold'"
       id="path4650" />
    <path
       d="m 378.11913,802.14369 q 2.1891,-3.70061 4.16971,-7.40123 1.9806,-3.70061 3.64849,-7.45334 h 8.96486 q -2.97091,5.83758 -6.15031,11.31032 -3.1794,5.47274 -6.72365,10.9976 v 13.81214 h -8.13092 v -13.7079 q -3.54425,-5.52486 -6.77577,-11.04972 -3.1794,-5.52486 -6.15032,-11.36244 h 9.43396 q 1.66788,3.75273 3.59637,7.45334 1.92849,3.70062 4.11758,7.40123 z"
       style="-inkscape-font-specification:'Ubuntu Bold'"
       id="path4652" />
    <path
       d="m 418.30459,823.40918 q -0.57333,-1.87637 -1.30303,-3.85698 -0.67758,-1.98061 -1.35515,-3.96122 h -14.07275 q -0.67758,1.98061 -1.40728,3.96122 -0.67757,1.98061 -1.25091,3.85698 h -8.44365 q 2.03273,-5.83759 3.85698,-10.78911 1.82424,-4.95152 3.54424,-9.32971 1.77213,-4.37819 3.44001,-8.28729 1.72,-3.96122 3.54425,-7.71395 h 7.76607 q 1.77213,3.75273 3.49213,7.71395 1.72,3.9091 3.44001,8.28729 1.77212,4.37819 3.59637,9.32971 1.82424,4.95152 3.85697,10.78911 z m -9.74668,-27.93702 q -0.26061,0.78182 -0.78182,2.13698 -0.52121,1.35515 -1.19879,3.12727 -0.67757,1.77213 -1.51152,3.9091 -0.78182,2.13698 -1.61576,4.48243 h 10.2679 q -0.83394,-2.34545 -1.61576,-4.48243 -0.78182,-2.13697 -1.51152,-3.9091 -0.67757,-1.77212 -1.19879,-3.12727 -0.52121,-1.35516 -0.83394,-2.13698 z"
       style="-inkscape-font-specification:'Ubuntu Bold'"
       id="path4654" />
    <path
       d="m 468.3931,823.40918 q -0.57334,-1.87637 -1.30304,-3.85698 -0.67757,-1.98061 -1.35515,-3.96122 h -14.07275 q -0.67758,1.98061 -1.40728,3.96122 -0.67757,1.98061 -1.25091,3.85698 h -8.44365 q 2.03273,-5.83759 3.85698,-10.78911 1.82424,-4.95152 3.54425,-9.32971 1.77212,-4.37819 3.44,-8.28729 1.72,-3.96122 3.54425,-7.71395 h 7.76607 q 1.77213,3.75273 3.49213,7.71395 1.72,3.9091 3.44001,8.28729 1.77212,4.37819 3.59637,9.32971 1.82424,4.95152 3.85697,10.78911 z m -9.74669,-27.93702 q -0.2606,0.78182 -0.78182,2.13698 -0.52121,1.35515 -1.19879,3.12727 -0.67757,1.77213 -1.51151,3.9091 -0.78182,2.13698 -1.61577,4.48243 h 10.2679 q -0.83394,-2.34545 -1.61576,-4.48243 -0.78182,-2.13697 -1.51152,-3.9091 -0.67757,-1.77212 -1.19879,-3.12727 -0.52121,-1.35516 -0.83394,-2.13698 z"
       style="-inkscape-font-specification:'Ubuntu Bold'"
       id="path4656" />
    <path
       d="m 481.78819,823.40918 v -36.12006 h 24.18428 v 6.82789 h -16.05336 v 7.55759 h 14.28124 v 6.82789 h -14.28124 v 14.90669 z"
       style="-inkscape-font-specification:'Ubuntu Bold'"
       id="path4658" />
    <path
       d="m 522.28641,786.87215 q 8.13093,0 12.457,2.91879 4.32606,2.86667 4.32606,8.96486 0,3.80486 -1.77212,6.20244 -1.72,2.34546 -5.00365,3.70061 1.09455,1.35516 2.29334,3.12728 1.19879,1.72 2.34546,3.64849 1.19879,1.87637 2.29334,3.96122 1.09454,2.03273 2.03273,4.01334 h -9.12123 q -0.9903,-1.77212 -2.03273,-3.59637 -0.9903,-1.82425 -2.08485,-3.54425 -1.04243,-1.72 -2.08485,-3.23152 -1.04243,-1.56364 -2.08486,-2.81455 h -4.01334 v 13.18669 h -8.13092 v -35.59885 q 2.65819,-0.52121 5.47274,-0.7297 2.86667,-0.20848 5.10788,-0.20848 z m 0.4691,6.93213 q -0.88607,0 -1.61576,0.0521 -0.67758,0.0521 -1.30304,0.10425 v 9.7988 h 2.29334 q 4.58668,0 6.56728,-1.14667 1.98061,-1.14667 1.98061,-3.9091 0,-2.65818 -2.03273,-3.75273 -1.98061,-1.14667 -5.8897,-1.14667 z"
       style="-inkscape-font-specification:'Ubuntu Bold'"
       id="path4660" />
    <path
       d="m 546.47068,787.28912 h 8.13093 v 36.12006 h -8.13093 z"
       style="-inkscape-font-specification:'Ubuntu Bold'"
       id="path4662" />
    <path
       d="m 584.25863,823.40918 q -1.09455,-1.77212 -2.60606,-3.80486 -1.4594,-2.08485 -3.23152,-4.11758 -1.72001,-2.08485 -3.59637,-3.96122 -1.87637,-1.92848 -3.75274,-3.38788 v 15.27154 h -8.13092 v -36.12006 h 8.13092 v 13.65578 q 3.1794,-3.33576 6.3588,-6.93213 3.23152,-3.64849 5.99395,-6.72365 h 9.64244 q -3.70061,4.37819 -7.45334,8.44365 -3.70062,4.06546 -7.8182,8.18304 4.32607,3.59637 8.33941,8.5479 4.06546,4.95152 7.76607,10.94547 z"
       style="-inkscape-font-specification:'Ubuntu Bold'"
       id="path4664" />
    <path
       d="m 624.07919,823.40918 q -0.57333,-1.87637 -1.30303,-3.85698 -0.67758,-1.98061 -1.35515,-3.96122 h -14.07276 q -0.67757,1.98061 -1.40727,3.96122 -0.67758,1.98061 -1.25091,3.85698 h -8.44365 q 2.03273,-5.83759 3.85697,-10.78911 1.82425,-4.95152 3.54425,-9.32971 1.77213,-4.37819 3.44001,-8.28729 1.72,-3.96122 3.54425,-7.71395 h 7.76607 q 1.77212,3.75273 3.49213,7.71395 1.72,3.9091 3.44,8.28729 1.77213,4.37819 3.59637,9.32971 1.82425,4.95152 3.85698,10.78911 z m -9.74668,-27.93702 q -0.26061,0.78182 -0.78182,2.13698 -0.52121,1.35515 -1.19879,3.12727 -0.67758,1.77213 -1.51152,3.9091 -0.78182,2.13698 -1.61576,4.48243 h 10.2679 q -0.83394,-2.34545 -1.61576,-4.48243 -0.78182,-2.13697 -1.51152,-3.9091 -0.67758,-1.77212 -1.19879,-3.12727 -0.52121,-1.35516 -0.83394,-2.13698 z"
       style="-inkscape-font-specification:'Ubuntu Bold'"
       id="path4666" />
    <path
       d="m 659.57373,787.28912 q 0.93818,1.72 2.13697,4.27395 1.25091,2.50182 2.55395,5.47273 1.35515,2.91879 2.65818,5.99395 1.30303,3.07516 2.4497,5.78547 1.14667,-2.71031 2.4497,-5.78547 1.30304,-3.07516 2.60607,-5.99395 1.35515,-2.97091 2.55394,-5.47273 1.25091,-2.55395 2.1891,-4.27395 h 7.40122 q 0.52121,3.59637 0.93819,8.0788 0.46909,4.43031 0.78181,9.27759 0.36485,4.79516 0.62546,9.64244 0.31273,4.84728 0.52121,9.12123 h -7.92243 q -0.15637,-5.26425 -0.41697,-11.46669 -0.26061,-6.20243 -0.78182,-12.50911 -0.93819,2.1891 -2.08486,4.84728 -1.14666,2.65819 -2.29333,5.31638 -1.09455,2.65818 -2.13698,5.10788 -1.04242,2.39758 -1.77212,4.11759 h -5.68122 q -0.7297,-1.72001 -1.77213,-4.11759 -1.04242,-2.4497 -2.18909,-5.10788 -1.09455,-2.65819 -2.24122,-5.31638 -1.14667,-2.65818 -2.08485,-4.84728 -0.52121,6.30668 -0.78182,12.50911 -0.26061,6.20244 -0.41697,11.46669 h -7.92244 q 0.20849,-4.27395 0.4691,-9.12123 0.31272,-4.84728 0.62545,-9.64244 0.36485,-4.84728 0.78182,-9.27759 0.46909,-4.48243 0.9903,-8.0788 z"
       style="-inkscape-font-specification:'Ubuntu Bold'"
       id="path4668" />
    <path
       d="m 720.92044,823.40918 q -0.57334,-1.87637 -1.30303,-3.85698 -0.67758,-1.98061 -1.35516,-3.96122 H 704.1895 q -0.67758,1.98061 -1.40727,3.96122 -0.67758,1.98061 -1.25091,3.85698 h -8.44365 q 2.03273,-5.83759 3.85697,-10.78911 1.82425,-4.95152 3.54425,-9.32971 1.77212,-4.37819 3.44001,-8.28729 1.72,-3.96122 3.54424,-7.71395 h 7.76608 q 1.77212,3.75273 3.49212,7.71395 1.72001,3.9091 3.44001,8.28729 1.77212,4.37819 3.59637,9.32971 1.82425,4.95152 3.85698,10.78911 z m -9.74668,-27.93702 q -0.26061,0.78182 -0.78182,2.13698 -0.52122,1.35515 -1.19879,3.12727 -0.67758,1.77213 -1.51152,3.9091 -0.78182,2.13698 -1.61576,4.48243 h 10.26789 q -0.83394,-2.34545 -1.61576,-4.48243 -0.78182,-2.13697 -1.51151,-3.9091 -0.67758,-1.77212 -1.19879,-3.12727 -0.52122,-1.35516 -0.83394,-2.13698 z"
       style="-inkscape-font-specification:'Ubuntu Bold'"
       id="path4670" />
    <path
       d="m 745.15672,817.20675 q 1.72001,0 2.81455,-0.26061 1.14667,-0.31273 1.82425,-0.78182 0.67758,-0.52121 0.93818,-1.19879 0.26061,-0.67758 0.26061,-1.51152 0,-1.77212 -1.66788,-2.91879 -1.66788,-1.19879 -5.73335,-2.55395 -1.77212,-0.62545 -3.54424,-1.40727 -1.77213,-0.83394 -3.1794,-2.03273 -1.40728,-1.25091 -2.29334,-2.97091 -0.88606,-1.77213 -0.88606,-4.27395 0,-2.50182 0.93818,-4.48243 0.93818,-2.03273 2.65819,-3.44001 1.72,-1.40727 4.1697,-2.13697 2.4497,-0.78182 5.52486,-0.78182 3.64849,0 6.30668,0.78182 2.65818,0.78182 4.37818,1.72 l -2.34545,6.41092 q -1.51152,-0.78182 -3.38789,-1.35515 -1.82424,-0.62546 -4.43031,-0.62546 -2.91879,0 -4.22182,0.83394 -1.25092,0.78182 -1.25092,2.4497 0,0.99031 0.4691,1.66788 0.46909,0.67758 1.30303,1.25092 0.88606,0.52121 1.98061,0.9903 1.14667,0.41697 2.50182,0.88606 2.81455,1.04243 4.8994,2.08485 2.08485,0.99031 3.44001,2.34546 1.40727,1.35516 2.08485,3.1794 0.67758,1.82425 0.67758,4.43031 0,5.05577 -3.54425,7.87032 -3.54425,2.76243 -10.68487,2.76243 -2.39758,0 -4.32607,-0.31273 -1.92848,-0.26061 -3.44,-0.67758 -1.4594,-0.41697 -2.55394,-0.88606 -1.04243,-0.46909 -1.77213,-0.88606 l 2.29334,-6.46304 q 1.61576,0.88606 3.96122,1.61576 2.39758,0.67758 5.83758,0.67758 z"
       style="-inkscape-font-specification:'Ubuntu Bold'"
       id="path4672" />
    <path
       d="m 787.42703,787.28912 h 8.13093 v 36.12006 h -8.13093 v -15.32366 h -13.65578 v 15.32366 h -8.13092 v -36.12006 h 8.13092 v 13.81214 h 13.65578 z"
       style="-inkscape-font-specification:'Ubuntu Bold'"
       id="path4674" />
    <path
       d="m 828.08163,823.40918 q -0.57333,-1.87637 -1.30303,-3.85698 -0.67758,-1.98061 -1.35515,-3.96122 H 811.3507 q -0.67758,1.98061 -1.40728,3.96122 -0.67758,1.98061 -1.25091,3.85698 h -8.44365 q 2.03273,-5.83759 3.85698,-10.78911 1.82424,-4.95152 3.54424,-9.32971 1.77213,-4.37819 3.44001,-8.28729 1.72,-3.96122 3.54425,-7.71395 h 7.76607 q 1.77213,3.75273 3.49213,7.71395 1.72,3.9091 3.44,8.28729 1.77213,4.37819 3.59637,9.32971 1.82425,4.95152 3.85698,10.78911 z m -9.74668,-27.93702 q -0.26061,0.78182 -0.78182,2.13698 -0.52121,1.35515 -1.19879,3.12727 -0.67758,1.77213 -1.51152,3.9091 -0.78182,2.13698 -1.61576,4.48243 h 10.2679 q -0.83394,-2.34545 -1.61576,-4.48243 -0.78182,-2.13697 -1.51152,-3.9091 -0.67758,-1.77212 -1.19879,-3.12727 -0.52121,-1.35516 -0.83394,-2.13698 z"
       style="-inkscape-font-specification:'Ubuntu Bold'"
       id="path4676" />
    <path
       d="m 852.05738,786.87215 q 8.13092,0 12.45699,2.91879 4.32607,2.86667 4.32607,8.96486 0,3.80486 -1.77213,6.20244 -1.72,2.34546 -5.00364,3.70061 1.09455,1.35516 2.29334,3.12728 1.19879,1.72 2.34546,3.64849 1.19879,1.87637 2.29333,3.96122 1.09455,2.03273 2.03273,4.01334 h -9.12122 q -0.99031,-1.77212 -2.03273,-3.59637 -0.99031,-1.82425 -2.08486,-3.54425 -1.04242,-1.72 -2.08485,-3.23152 -1.04242,-1.56364 -2.08485,-2.81455 h -4.01334 v 13.18669 h -8.13092 v -35.59885 q 2.65818,-0.52121 5.47273,-0.7297 2.86667,-0.20848 5.10789,-0.20848 z m 0.46909,6.93213 q -0.88606,0 -1.61576,0.0521 -0.67758,0.0521 -1.30303,0.10425 v 9.7988 h 2.29334 q 4.58667,0 6.56728,-1.14667 1.98061,-1.14667 1.98061,-3.9091 0,-2.65818 -2.03273,-3.75273 -1.98061,-1.14667 -5.88971,-1.14667 z"
       style="-inkscape-font-specification:'Ubuntu Bold'"
       id="path4678" />
    <path
       d="m 876.24165,787.28912 h 8.13092 v 36.12006 h -8.13092 z"
       style="-inkscape-font-specification:'Ubuntu Bold'"
       id="path4680" />
    <path
       d="m 914.0296,823.40918 q -1.09455,-1.77212 -2.60607,-3.80486 -1.45939,-2.08485 -3.23152,-4.11758 -1.72,-2.08485 -3.59637,-3.96122 -1.87636,-1.92848 -3.75273,-3.38788 v 15.27154 h -8.13092 v -36.12006 h 8.13092 v 13.65578 q 3.1794,-3.33576 6.3588,-6.93213 3.23152,-3.64849 5.99395,-6.72365 h 9.64244 q -3.70061,4.37819 -7.45335,8.44365 -3.70061,4.06546 -7.81819,8.18304 4.32606,3.59637 8.3394,8.5479 4.06547,4.95152 7.76608,10.94547 z"
       style="-inkscape-font-specification:'Ubuntu Bold'"
       id="path4682" />
    <path
       d="m 928.3628,787.28912 h 8.13093 v 36.12006 h -8.13093 z"
       style="-inkscape-font-specification:'Ubuntu Bold'"
       id="path4684" />
  </g>
  <g
     id="g12852"
     transform="matrix(3.957861,0,0,3.957861,-151.39075,1307.8709)">
    <path
       d="m 52.112361,-129.61707 13.128358,-3.51773 -4.147089,-7.18297 22.630045,-8.46833 v 7.69399 h 6.990541 v 11.82677 H 52.639949 Z"
       style="fill:#008300;fill-opacity:1;fill-rule:evenodd;stroke:none"
       id="path9350"
       inkscape:connector-curvature="0" />
    <path
       d="M 87.403744,-129.44121 H 59.881237 l 27.522507,-7.3813 z"
       style="fill:#ffffff;fill-opacity:1;fill-rule:evenodd;stroke:none"
       id="path10225"
       inkscape:connector-curvature="0" />
    <path
       d="M 81.424414,-140.96022 H 68.938165 l 12.486249,-4.83622 z"
       style="fill:#ffffff;fill-opacity:1;fill-rule:evenodd;stroke:none"
       id="path11102"
       inkscape:connector-curvature="0" />
    <path
       d="m 65.157118,-138.84986 2.816845,4.97316 18.315615,-4.97316 z"
       style="fill:#ffffff;fill-opacity:1;fill-rule:evenodd;stroke:none"
       id="path11977"
       inkscape:connector-curvature="0" />
  </g>
  <use
     transform="matrix(-0.99999997,0,0,0.99999997,1000.0047,-9.6076719e-6)"
     id="use12858"
     x="0"
     y="0"
     width="600"
     height="330"
     xlink:href="#g12852" />
  <path
     d="M 490.97349,52.469395 C 299.99007,57.299845 146.39226,213.93967 146.39222,406.07953 c 0,150.0566 93.60594,278.33036 225.59807,329.61562 V 696.61124 C 260.48191,647.3764 182.63138,535.75005 182.63138,406.07953 c 4e-5,-174.51712 141.00976,-316.38978 315.26837,-317.494657 0.68336,-0.004 1.41824,0 2.10261,0 175.2016,-4e-5 317.371,142.293137 317.371,317.494657 5e-5,129.67052 -77.85049,241.29687 -189.35891,290.53171 v 39.08391 c 131.99213,-51.28526 225.59799,-179.55897 225.59809,-329.61562 0,-195.18064 -158.42948,-353.610175 -353.61018,-353.610135 -2.28729,0 -4.52558,-0.04338 -6.80257,0 -0.7501,0.01596 -1.47736,-0.01994 -2.2263,0 z"
     style="fill:#ffff00;fill-opacity:1;fill-rule:nonzero;stroke:#000000;stroke-width:5.93677;stroke-miterlimit:4;stroke-dasharray:none;stroke-opacity:1"
     id="path12876"
     inkscape:connector-curvature="0" />
  <g
     transform="matrix(3.957861,0,0,3.957861,-2215.0433,1131.2646)"
     id="g14644">
    <path
       d="m 710.62382,-118.65631 c 0,0 0.13223,13.22371 0.13223,13.22371 -8.06645,1.19013 -17.05859,9.653315 -19.43885,11.240161 -2.38027,1.586845 -6.43489,4.711457 -8.55111,4.450395 -3.56788,-0.440141 -0.93133,-3.325899 -0.93133,-3.325899 0,0 -2.46447,2.89604 -4.36684,1.590287 -1.68802,-1.158625 1.0231,-3.459314 1.0231,-3.459314 0,0 -0.89471,1.234612 -2.76099,0.734404 -1.74607,-0.467985 -0.48345,-2.647303 -0.48345,-2.647303 0,0 -4.89006,2.564127 -5.61356,1.731772 -1.43598,-1.652049 0.35173,-3.172327 0.35173,-3.172327 0,0 11.28243,-9.522436 11.28243,-9.522436 0,0 -7.29279,2.73235 0,0 6.28235,-2.35377 7.93422,0.92565 10.84344,0.79342 2.90922,-0.13225 10.71121,-4.36383 12.827,-6.47962 2.1158,-2.1158 1.58684,-4.36382 3.1737,-4.89278 1.58684,-0.52894 2.38026,-0.39671 2.5125,-0.26447 z"
       style="fill:#ffffff;fill-opacity:1;fill-rule:evenodd;stroke:#000000;stroke-width:1.0634px;stroke-linecap:butt;stroke-linejoin:miter;stroke-opacity:1"
       id="path14638"
       inkscape:connector-curvature="0" />
    <path
       d="m 661.31288,-117.81575 c 0,0 -0.12435,12.43537 -0.12435,12.43537 7.58557,1.11918 16.04163,9.077823 18.27999,10.570067 2.23837,1.492244 5.96858,3.851755 7.95864,3.606257 3.35518,-0.413902 2.68043,-1.641246 2.68043,-1.641246 0,0 1.48761,0.743764 3.45953,0.0091 1.98071,-0.73793 1.00744,-2.140566 1.00744,-2.140566 0,0 2.93241,0.861443 4.29314,-0.704025 1.35038,-1.553563 -1.14311,-3.102592 -1.14311,-3.102592 0,0 1.11035,-0.767458 -0.87931,0.351725 -1.98966,1.119183 -6.06057,-3.59117 -10.16424,-3.71552 -4.10368,-0.12436 -4.47674,3.979314 -7.08816,1.98966 -2.61143,-1.98966 2.15421,-5.20303 3.73061,-5.72027 6.49678,-2.13169 12.47759,0.50741 4.62867,-2.4444 -4.01701,-1.5885 -7.1095,1.31013 -9.84528,1.18578 -2.73578,-0.12436 -9.45713,-3.83988 -11.44679,-5.82954 -1.98966,-1.98966 -1.49224,-4.10367 -2.98449,-4.60109 -1.49224,-0.49741 -2.23836,-0.37306 -2.36272,-0.24871 z"
       style="fill:#ffffff;fill-opacity:1;fill-rule:evenodd;stroke:#000000;stroke-width:1px;stroke-linecap:butt;stroke-linejoin:miter;stroke-opacity:1"
       id="path14632"
       inkscape:connector-curvature="0" />
    <path
       d="m 694.70149,-95.016094 -5.36381,-2.330181"
       style="fill:none;stroke:#000000;stroke-width:1px;stroke-linecap:butt;stroke-linejoin:miter;stroke-opacity:1"
       id="path14640"
       inkscape:connector-curvature="0" />
    <path
       d="m 690.65665,-92.554018 -6.33106,-3.912944"
       style="fill:none;stroke:#000000;stroke-width:1px;stroke-linecap:butt;stroke-linejoin:miter;stroke-opacity:1"
       id="path14642"
       inkscape:connector-curvature="0" />
  </g>
  <g
     transform="matrix(3.8242198,0,0,3.8242198,-1327.9213,1055.1554)"
     style="stroke:#000000;stroke-width:0.517473;stroke-miterlimit:4;stroke-dasharray:none;stroke-opacity:1"
     id="g17313">
    <path
       d="m 441.65962,-108.67267 c -16.12179,7.87383 -16.87642,-12.69816 -24.32133,-12.53044 13.73974,-9.09975 11.57711,7.85751 24.32133,12.53044 z"
       style="fill:#008300;fill-opacity:1;fill-rule:evenodd;stroke:#000000;stroke-width:0.517473;stroke-linecap:butt;stroke-linejoin:miter;stroke-miterlimit:4;stroke-dasharray:none;stroke-opacity:1"
       id="path14650"
       inkscape:connector-curvature="0" />
    <path
       d="m 435.33482,-131.30066 c -8.22857,14.84658 10.78838,16.807 10.20204,23.87263 9.22655,-12.50855 -6.61012,-11.47792 -10.20204,-23.87263 z"
       style="fill:#008300;fill-opacity:1;fill-rule:evenodd;stroke:#000000;stroke-width:0.517473;stroke-linecap:butt;stroke-linejoin:miter;stroke-miterlimit:4;stroke-dasharray:none;stroke-opacity:1"
       id="path14652"
       inkscape:connector-curvature="0" />
    <path
       d="m 427.45208,-125.65682 c -19.83671,3.48006 -14.48908,-13.80298 -22.708,-15.34355 17.55437,-5.13427 9.98526,8.20495 22.708,15.34355 z"
       style="fill:#008300;fill-opacity:1;fill-rule:evenodd;stroke:#000000;stroke-width:0.517473;stroke-linecap:butt;stroke-linejoin:miter;stroke-miterlimit:4;stroke-dasharray:none;stroke-opacity:1"
       id="path15527"
       inkscape:connector-curvature="0" />
    <path
       d="m 425.44251,-146.1142 c -10.94264,12.97647 4.84988,13.60093 2.90912,20.42004 11.46996,-10.48965 -0.28802,-10.0519 -2.90912,-20.42004 z"
       style="fill:#008300;fill-opacity:1;fill-rule:evenodd;stroke:#000000;stroke-width:0.517473;stroke-linecap:butt;stroke-linejoin:miter;stroke-miterlimit:4;stroke-dasharray:none;stroke-opacity:1"
       id="path15529"
       inkscape:connector-curvature="0" />
    <path
       d="m 413.90983,-143.69293 c -19.80636,-2.89735 -7.31187,-23.10787 -13.30137,-27.53288 16.43495,1.21587 5.83625,19.02063 13.30137,27.53288 z"
       style="fill:#008300;fill-opacity:1;fill-rule:evenodd;stroke:#000000;stroke-width:0.517473;stroke-linecap:butt;stroke-linejoin:miter;stroke-miterlimit:4;stroke-dasharray:none;stroke-opacity:1"
       id="path16414"
       inkscape:connector-curvature="0" />
    <path
       d="m 421.51758,-169.18782 c -18.33106,8.69174 0.2313,17.90438 -7.04485,26.11684 17.93759,-1.00921 2.04854,-12.87367 7.04485,-26.11684 z"
       style="fill:#008300;fill-opacity:1;fill-rule:evenodd;stroke:#000000;stroke-width:0.517473;stroke-linecap:butt;stroke-linejoin:miter;stroke-miterlimit:4;stroke-dasharray:none;stroke-opacity:1"
       id="path16416"
       inkscape:connector-curvature="0" />
    <path
       d="m 411.33209,-168.55597 c -21.29757,-9.88932 0.97247,-27.99154 -2.84232,-34.73858 14.53659,14.64533 -7.5731,20.31051 2.84232,34.73858 z"
       style="fill:#008300;fill-opacity:1;fill-rule:evenodd;stroke:#000000;stroke-width:0.517473;stroke-linecap:butt;stroke-linejoin:miter;stroke-miterlimit:4;stroke-dasharray:none;stroke-opacity:1"
       id="path16418"
       inkscape:connector-curvature="0" />
    <path
       d="m 425.00249,-193.17472 c -18.33744,2.31832 -9.21679,19.19507 -12.93625,25.13991 14.24753,-3.26232 2.69264,-11.85514 12.93625,-25.13991 z"
       style="fill:#008300;fill-opacity:1;fill-rule:evenodd;stroke:#000000;stroke-width:0.517473;stroke-linecap:butt;stroke-linejoin:miter;stroke-miterlimit:4;stroke-dasharray:none;stroke-opacity:1"
       id="path16420"
       inkscape:connector-curvature="0" />
    <path
       d="m 416.14033,-198.29239 c -10.47495,-15.71275 6.7307,-19.31698 8.00414,-27.31341 5.01076,20.73644 -6.73737,13.91817 -8.00414,27.31341 z"
       style="fill:#008300;fill-opacity:1;fill-rule:evenodd;stroke:#000000;stroke-width:0.517473;stroke-linecap:butt;stroke-linejoin:miter;stroke-miterlimit:4;stroke-dasharray:none;stroke-opacity:1"
       id="path16426"
       inkscape:connector-curvature="0" />
    <path
       d="m 436.80633,-211.38988 c -17.09087,-4.84542 -14.09584,12.24397 -19.80027,16.32256 14.41554,2.41393 11.48437,-11.4264 19.80027,-16.32256 z"
       style="fill:#008300;fill-opacity:1;fill-rule:evenodd;stroke:#000000;stroke-width:0.517473;stroke-linecap:butt;stroke-linejoin:miter;stroke-miterlimit:4;stroke-dasharray:none;stroke-opacity:1"
       id="path16428"
       inkscape:connector-curvature="0" />
    <path
       d="m 428.8585,-218.79428 c -3.38158,-13.64242 3.42178,-11.34692 11.16762,-17.29045 4.21167,10.97972 -6.20313,9.72539 -11.16762,17.29045 z"
       style="fill:#008300;fill-opacity:1;fill-rule:evenodd;stroke:#000000;stroke-width:0.517473;stroke-linecap:butt;stroke-linejoin:miter;stroke-miterlimit:4;stroke-dasharray:none;stroke-opacity:1"
       id="path16430"
       inkscape:connector-curvature="0" />
    <path
       d="m 450.58347,-220.79278 c -13.20656,-9.67741 -14.57363,3.36531 -21.36376,5.11734 12.58054,7.44077 13.08645,-3.54249 21.36376,-5.11734 z"
       style="fill:#008300;fill-opacity:1;fill-rule:evenodd;stroke:#000000;stroke-width:0.517473;stroke-linecap:butt;stroke-linejoin:miter;stroke-miterlimit:4;stroke-dasharray:none;stroke-opacity:1"
       id="path16432"
       inkscape:connector-curvature="0" />
    <path
       d="m 442.69911,-227.35321 c 0.43524,-5.84462 8.20734,-13.67891 16.41469,-10.94312 -0.49741,9.69959 -9.88612,12.31101 -16.41469,10.94312 z"
       style="fill:#008300;fill-opacity:1;fill-rule:evenodd;stroke:#000000;stroke-width:0.517473;stroke-linecap:butt;stroke-linejoin:miter;stroke-miterlimit:4;stroke-dasharray:none;stroke-opacity:1"
       id="path16434"
       inkscape:connector-curvature="0" />
  </g>
  <use
     transform="matrix(-0.99999997,0,0,0.99999997,1000.0048,-9.4580833e-6)"
     id="use17328"
     x="0"
     y="0"
     width="600"
     height="330"
     xlink:href="#g17313" />
  <g
     transform="matrix(4.0664568,0,0,4.0664568,-332.28277,1098.7922)"
     id="g18248">
    <path
       d="m 186.40617,-228.9698 c 0,0 9.04673,-2.30054 18.09346,-2.23837 9.04673,0.0622 18.09346,2.48707 18.09346,2.48707"
       style="fill:none;stroke:none"
       id="path17362"
       inkscape:connector-curvature="0" />
    <path
       transform="matrix(0.916721,0,0,0.916721,16.99979,-19.66735)"
       style="font-style:normal;font-variant:normal;font-weight:normal;font-stretch:normal;font-size:18px;line-height:125%;font-family:'Times New Roman';text-align:start;writing-mode:lr-tb;text-anchor:start;fill:#000000;fill-opacity:1;stroke:none"
       d="m 188.17318,-240.87941 0.79379,4.64358 2.5817,-0.44133 c 0.66996,-0.11452 1.10029,-0.29211 1.29099,-0.53277 0.25491,-0.317 0.34243,-0.81346 0.26256,-1.48936 l 0.32054,-0.0548 0.69902,4.08912 -0.32055,0.0548 c -0.17861,-0.55796 -0.32216,-0.91088 -0.43065,-1.05878 -0.13853,-0.18437 -0.33606,-0.31407 -0.5926,-0.38911 -0.25655,-0.075 -0.63028,-0.0706 -1.1212,0.0133 l -2.58169,0.44133 0.66199,3.87254 c 0.0889,0.5198 0.16626,0.83351 0.23221,0.94112 0.065,0.10184 0.16112,0.17754 0.28849,0.2271 0.12637,0.0438 0.35127,0.038 0.67471,-0.0173 l 1.99258,-0.34062 c 0.66418,-0.11354 1.13854,-0.24218 1.42309,-0.38594 0.28452,-0.14374 0.5422,-0.37504 0.77303,-0.69389 0.29687,-0.41929 0.57131,-1.02201 0.82331,-1.80813 l 0.34654,-0.0592 -0.51009,3.11882 -9.05324,1.54762 -0.0548,-0.32055 0.41585,-0.0711 c 0.27722,-0.0474 0.52866,-0.15873 0.7543,-0.33402 0.16902,-0.12401 0.2695,-0.28385 0.30144,-0.47953 0.0377,-0.19666 0.008,-0.58089 -0.09,-1.15267 l -1.30473,-7.63245 c -0.12736,-0.74504 -0.28094,-1.19137 -0.46072,-1.33897 -0.24741,-0.19547 -0.6137,-0.25175 -1.09885,-0.16882 l -0.41584,0.0711 -0.0548,-0.32054 9.05324,-1.54762 0.5698,2.55082 -0.33787,0.0578 c -0.22694,-0.59725 -0.43524,-0.99855 -0.62489,-1.20392 -0.18389,-0.20633 -0.43058,-0.34546 -0.74009,-0.41739 -0.24584,-0.0471 -0.66042,-0.0208 -1.24375,0.0789 l -3.22278,0.55092 m 17.2729,5.67238 -4.6142,0.0238 -0.79887,1.88501 c -0.19682,0.46392 -0.29465,0.81013 -0.29346,1.03864 9.3e-4,0.18164 0.0867,0.34233 0.25737,0.48208 0.17647,0.13385 0.55192,0.21981 1.12635,0.25786 l 0.002,0.32519 -3.75288,0.0194 -0.002,-0.32519 c 0.49758,-0.0905 0.81926,-0.20639 0.96501,-0.34777 0.29737,-0.28278 0.62547,-0.85577 0.9843,-1.71897 l 4.14168,-9.83011 0.30761,-0.002 4.19958,9.89251 c 0.33808,0.79514 0.64252,1.31213 0.91329,1.55097 0.27659,0.23295 0.65813,0.36281 1.14461,0.3896 l 0.002,0.32519 -4.70209,0.0243 -0.002,-0.32519 c 0.47448,-0.0259 0.7934,-0.10664 0.95677,-0.24225 0.16922,-0.13564 0.25333,-0.30014 0.25234,-0.4935 -0.001,-0.2578 -0.12063,-0.66442 -0.35786,-1.21984 l -0.72955,-1.71013 m -0.24945,-0.64911 -2.04633,-4.8059 -2.04932,4.82705 4.09565,-0.0212 m 17.80968,-5.41472 -0.41815,4.03932 -0.26852,-0.0462 c -0.15249,-1.25691 -0.51558,-2.20521 -1.08928,-2.8449 -0.57373,-0.63968 -1.32544,-1.03946 -2.25515,-1.19935 -0.77958,-0.13405 -1.51834,-0.056 -2.21628,0.23423 -0.69697,0.28444 -1.30182,0.82847 -1.81457,1.6321 -0.50699,0.80463 -0.8712,1.85081 -1.09264,3.13854 -0.18272,1.06253 -0.17075,2.01288 0.0359,2.85104 0.20664,0.83816 0.61491,1.52371 1.22482,2.05666 0.61568,0.53394 1.36239,0.87638 2.24014,1.02732 0.76224,0.13108 1.46278,0.0851 2.10164,-0.138 0.63983,-0.22886 1.39252,-0.76828 2.25809,-1.61826 l 0.23873,0.21942 c -0.76876,0.94391 -1.58751,1.59088 -2.45626,1.9409 -0.86877,0.35001 -1.84308,0.43217 -2.92293,0.24648 -1.94605,-0.33465 -3.32909,-1.31566 -4.14914,-2.94302 -0.61219,-1.21111 -0.79317,-2.54427 -0.54293,-3.99948 0.20159,-1.17224 0.64953,-2.20402 1.34384,-3.09535 0.6943,-0.89131 1.5467,-1.52654 2.55722,-1.9057 1.01728,-0.38392 2.07162,-0.48204 3.16303,-0.29437 0.84886,0.14598 1.65043,0.49786 2.40471,1.05562 0.22068,0.16876 0.38299,0.26207 0.48695,0.27994 0.1559,0.0268 0.30104,-0.005 0.43541,-0.0946 0.17694,-0.13009 0.32101,-0.32827 0.43221,-0.59453 l 0.30316,0.0521"
       id="text17365"
       inkscape:connector-curvature="0" />
  </g>
  <path
     d="m 488.43741,201.14257 c -4.89718,0.37122 -9.8527,1.14322 -14.6332,1.77015 -5.2617,11.19184 -17.96109,22.29348 -34.81291,29.14842 -1.05322,0.42837 -2.21957,0.78524 -3.30426,1.18007 -18.29616,6.6593 -36.33483,6.8023 -48.26603,1.41613 -13.97529,9.16893 -26.78376,20.02337 -38.11718,32.21667 2.4e-4,0.0279 2e-4,0.11319 0,0.11792 3.04874,11.93521 0.41172,28.53214 -8.02464,44.48972 -0.53142,1.00518 -1.07507,1.95055 -1.65213,2.95023 -9.78118,16.94151 -23.69729,28.73471 -36.34705,32.21668 -0.0279,2.3e-4 -0.1108,7e-4 -0.11793,0 -4.88582,15.98208 -7.80411,32.77781 -8.61472,50.15417 10.04762,7.16024 18.61525,21.59464 22.42188,39.29728 0.23904,1.11157 0.50768,2.16756 0.70806,3.30426 3.38096,19.17461 0.29564,37.09735 -7.08061,47.91197 6.58168,15.52152 14.99324,30.02489 25.01807,43.3096 0.012,-4.5e-4 0.10486,0.002 0.11793,0 12.22907,-0.79038 27.90715,4.61142 42.0115,15.57731 0.89761,0.69788 1.71198,1.50027 2.5962,2.24218 14.9152,12.51533 24.07112,28.15956 25.3721,41.18543 15.06671,7.79601 31.20165,13.80977 48.14802,17.70147 8.77216,-8.71733 24.53965,-14.7814 42.71953,-15.45929 1.13626,-0.0399 2.268,0 3.42232,0 19.62363,0 36.82133,6.19716 46.14185,15.45929 16.95367,-3.89454 33.06636,-9.90022 48.14798,-17.70147 1.21715,-12.25814 9.39037,-26.95148 22.77586,-39.06127 0.84323,-0.7628 1.71199,-1.50017 2.59626,-2.24213 14.75851,-12.38394 31.60947,-18.63864 44.60772,-17.8195 0.0299,-3.9e-4 0.11169,-0.001 0.11817,0 9.83251,-13.03978 18.1261,-27.29508 24.66407,-42.48356 -6.83306,-10.19054 -9.88506,-26.51383 -7.43465,-44.25368 0.15557,-1.12636 0.38943,-2.16748 0.59007,-3.30426 3.40758,-19.32552 12.508,-35.26699 23.24792,-42.83755 -0.77043,-17.36555 -3.67794,-34.16611 -8.49669,-50.15417 -11.86063,-3.32734 -24.85743,-13.86356 -34.45887,-29.14842 -0.60484,-0.96287 -1.07495,-2.06862 -1.65216,-3.06825 -9.81187,-16.99462 -13.03779,-34.97313 -9.67679,-47.676 -11.77352,-12.78084 -25.11792,-24.16603 -39.76932,-33.6328 -11.22468,5.19137 -28.11837,5.46288 -45.4338,-0.11792 -1.08217,-0.34869 -2.10167,-0.78532 -3.18623,-1.18012 -18.29618,-6.65922 -32.32141,-18.17924 -37.9992,-29.9745 -8.1256,-0.97728 -16.39446,-1.5341 -24.78204,-1.5341 -1.33049,0 -2.6878,-0.0239 -4.01234,0 -0.6785,0.012 -1.32929,-0.0199 -2.00616,0 -0.47135,0.012 -0.94557,-0.0199 -1.41613,0 -0.39581,0.016 -0.78488,-0.0199 -1.18007,0 -0.37043,0.016 -0.69211,-0.0199 -1.06209,0 -0.0199,0.001 -0.0978,-4.4e-4 -0.11792,0 -0.0776,-7.6e-4 -0.15832,5.1e-4 -0.23591,0 -0.0239,-2.4e-4 -0.10725,-6.4e-4 -0.11792,0 -0.012,6.3e-4 -0.0938,2.3e-4 -0.11793,0 -0.078,-7.6e-4 -0.15791,5.5e-4 -0.2359,0 -0.0239,-2.4e-4 -0.10765,-6.8e-4 -0.11792,0 -0.0199,0.001 -0.0981,-4.4e-4 -0.11793,0 -0.0784,-8e-4 -0.15752,5.9e-4 -0.2359,0 -0.0199,5.1e-4 -0.0978,-0.001 -0.11793,0 -0.15791,0.012 -0.31423,-0.012 -0.47205,0 z m -15.57731,1.77015 c -2.7e-4,0.0279 -8.7e-4,0.11119 0,0.11792 0.012,2.4e-4 0.10526,-5.5e-4 0.11793,0 -2.4e-4,-0.012 8.3e-4,-0.10371 0,-0.11792 -0.012,-2.4e-4 -0.10487,7.9e-4 -0.11793,0 z m 55.22867,407.60584 c -0.004,0.01 0.004,0.1117 0,0.11818 0.015,-0.004 0.10371,0.004 0.11817,0 0.01,-0.003 -0.01,-0.11469 0,-0.11818 -0.004,0.01 -0.11418,-0.01 -0.11817,0 z"
     style="fill:#ff0000;fill-opacity:1;fill-rule:nonzero;stroke:none;stroke-width:3.95786"
     id="path18254"
     inkscape:connector-curvature="0" />
  <path
     d="m 675.65188,405.88489 c 0,96.95846 -78.69103,175.64944 -175.64952,175.64944 -96.95845,0 -175.64944,-78.69098 -175.64944,-175.64944 0,-96.95853 78.69099,-175.64952 175.64944,-175.64952 96.95849,0 175.64952,78.69099 175.64952,175.64952 z"
     style="fill:#fbf014;fill-opacity:1;fill-rule:nonzero;stroke:#000000;stroke-width:1.84882;stroke-miterlimit:4;stroke-dasharray:none;stroke-opacity:1"
     id="path19134"
     inkscape:connector-curvature="0" />
  <path
     d="m 660.93775,405.88489 c 0,88.83629 -72.09906,160.93536 -160.93539,160.93536 -88.83629,0 -160.93533,-72.09907 -160.93533,-160.93536 0,-88.83633 72.09904,-160.93542 160.93533,-160.93542 88.83633,0 160.93539,72.09909 160.93539,160.93542 z"
     style="fill:#fbf014;fill-opacity:1;fill-rule:nonzero;stroke:#000000;stroke-width:1.84882;stroke-miterlimit:4;stroke-dasharray:none;stroke-opacity:1"
     id="path19195"
     inkscape:connector-curvature="0" />
  <g
     id="g3056"
     transform="matrix(7.7433343,0,0,7.7433343,-1823.4584,-781.66546)">
    <g
       id="g24796"
       style="stroke:#000000;stroke-width:3.03275;stroke-miterlimit:4;stroke-dasharray:none;stroke-opacity:1"
       transform="matrix(0.07678812,0,0,0.07678812,319.82171,159.80413)">
      <path
         id="path24790"
         style="fill:#0087ff;fill-opacity:1;fill-rule:evenodd;stroke:#000000;stroke-width:3.03275;stroke-linecap:butt;stroke-linejoin:miter;stroke-miterlimit:4;stroke-dasharray:none;stroke-opacity:1"
         d="m -338.24202,-217.1562 89.53466,15.91727 -11.93796,89.53465 -75.60704,51.731132 -41.78283,-45.762152 1.98965,-73.61738 z"
         inkscape:connector-curvature="0" />
      <path
         id="path23908"
         style="fill:#ffffff;fill-opacity:1;fill-rule:evenodd;stroke:#000000;stroke-width:3.03275;stroke-linecap:butt;stroke-linejoin:miter;stroke-miterlimit:4;stroke-dasharray:none;stroke-opacity:1"
         d="m -363.24122,-151.12315 -34.92399,1.19838 c 0,0 -1.71196,-0.34241 -2.39676,-0.34241 -0.68477,0 -1.19836,0.1712 -1.19836,0.1712 l -0.51359,1.88316 -0.85599,0.51358 -0.68477,2.39675 -2.73915,1.36957 -0.17119,1.54077 -2.56796,1.71197 -3.25271,2.05433 -1.54076,-0.51358 -0.68479,-3.25272 -1.02718,-0.17119 -3.59513,0.68478 -2.56792,0.68479 -0.17119,-4.2799 -1.02717,-1.19839 v -7.87501 h 1.71195 l 0.51357,-7.7038 0.85601,-1.88318 -0.34242,-1.54077 2.73915,-2.39674 1.88315,-1.36957 1.02718,-2.05436 0.17121,-2.56791 1.02717,-1.0272 -1.36957,-1.19837 -1.88316,1.02717 -2.39674,-1.54077 -0.17122,-3.25271 0.5136,-1.71197 1.88316,-1.19836 0.85598,0.51359 1.19838,-7.01906 2.91033,-1.88314 -1.36956,-4.27991 1.02716,-2.56794 -0.51357,-3.25272 7.36141,-2.73915 0.6848,-2.91033 0.68477,-3.2527 3.08153,-0.85601 2.39676,-1.36955 1.54075,4.27989 0.17121,2.22555 2.05436,-0.34238 1.19836,-2.91034 1.88316,-0.85598 0.68478,-2.56794 4.79349,-5.82068 0.856,-1.71196 3.93749,-1.71195 2.73914,-0.51357 2.56793,-2.73914 1.19839,-1.71198 -0.17121,-2.05434 1.19837,0.51358 1.88316,-2.22555 -1.36956,-2.05435 0.85597,-1.54076 -1.02718,-4.10871 -1.19836,-1.19838 0.34238,-1.19835 -1.88315,2.73912 -2.05434,-0.85598 -0.3424,-2.56793 -2.22555,0.51358 -2.05435,-0.3424 -2.39673,-3.25273 -1.36959,0.68479 v 2.22555 l -1.36957,-0.85598 -1.02717,-2.73912 -2.39674,0.17117 1.02717,-3.5951 3.08152,-6.33425 0.51361,-3.08154 -3.59513,-3.08153 2.22556,-7.01904 3.42392,-3.76632 -0.1712,-3.42391 -2.22556,0.68479 2.73914,-4.27991 6.16307,-3.08154 3.25271,0.3424 5.47826,3.42393 1.88318,-1.19838 2.39675,-0.34238 3.42392,-2.56795 4.62228,3.59513 -0.17119,2.05434 3.25272,0.17119 1.36956,2.05436 h 1.88317 l 0.17118,-2.91034 5.82069,-2.91032 9.2446,-0.85598 7.01903,-3.42393 3.9375,2.73914 9.92936,0.51358 13.52449,-12.66851 44.32993,9.42514 -2.51314,76.20997 -45.24071,24.95755 -2.56793,-1.54075 -1.36958,1.02718 -0.68477,-0.68479 0.51359,-3.42393 -2.91034,0.51359 -0.85599,3.93751 h -2.56795 l -3.08151,-1.54076 0.34238,-1.36958 2.56795,0.34241 -0.17119,-1.36958 -1.88317,-1.02717 -2.73912,0.51358 0.17117,-1.71197 2.05436,-2.22554 -0.51359,-0.85598 -1.71194,1.88315 -2.05436,-0.85597 -1.71196,1.19838 1.71196,2.39673 -2.39674,1.36957 -0.1712,1.54077 -3.42392,-0.51359 v 1.36958 h 2.22555 l -5.30708,3.93751 -1.36957,-1.54077 0.51358,-1.36958 h -1.19837 l -1.88315,1.71196 -3.25273,0.17121 0.51359,-1.02717 2.39675,-0.68481 -0.6848,-0.85596 -2.22554,0.1712 v -2.91035 l -0.85599,0.51358 -0.34239,2.56795 -1.19836,-0.5136 0.17119,1.54078 -0.17119,1.54075 0.17119,1.19839 -1.19836,0.34239 -0.34241,-0.85597 -1.71195,0.68475 -1.02717,-1.54074 c 0,0 -1.88318,0.34238 -1.54077,1.19836 0.34237,0.85598 0.68478,2.39674 0.68478,2.39674 l -3.25273,-1.02715 -1.36955,-0.85599 v 3.25272 l -2.05435,0.51358 -2.73916,-2.56793 1.19839,2.73913 -3.08154,-0.1712 -1.88317,1.19837 1.54078,1.71197 1.19837,1.36958 1.36956,1.54075 -0.68478,1.36958 -1.19836,-0.68479 -2.05436,3.08154 h -1.54077 l -1.19837,2.56794 -1.19837,0.85596 0.51359,1.36956 1.02716,0.34242 -0.17118,1.54076 -1.19836,-0.3424 -2.73914,3.42392 0.51358,1.19838 1.54077,-0.1712 z"
         inkscape:connector-curvature="0" />
      <path
         id="Kenya"
         style="fill:#ffffff;fill-opacity:1;fill-rule:evenodd;stroke:#000000;stroke-width:3.03275;stroke-linecap:butt;stroke-linejoin:miter;stroke-miterlimit:4;stroke-dasharray:none;stroke-opacity:1"
         d="m -302.81543,-150.46364 96.45555,52.833778 1.35471,7.315464 -3.52226,2.167538 1.08378,3.522255 3.25131,0.541884 1.08376,3.522253 37.39008,26.823314 2.70942,-1.625653 3.25131,1.354707 0.81283,-3.522253 2.16753,-2.167539 4.33509,-9.482991 -2.43849,-0.812823 1.62567,-3.522254 2.16753,0.541885 3.25133,-4.335083 0.54187,-3.793194 -2.70941,-1.8966 3.2513,1.083768 2.70942,-8.128276 3.7932,-1.083773 0.81282,-5.689778 1.8966,-1.896611 c 0,0 -2.43848,-6.773568 -0.27094,-9.212028 2.16754,-2.43851 10.8377,-2.16756 10.8377,-2.16756 l 5.41885,-5.68979 v -2.16752 l 3.25132,-2.4385 -3.25132,-5.68979 6.23169,1.89659 5.14791,-1.89659 2.98037,0.27093 5.1479,-7.31544 v -2.70944 l -15.44372,-19.7788 v -98.0812 l 9.21204,-8.94109 15.172783,-20.86259 -4.335082,-1.89659 -15.443721,2.16754 -3.79321,-5.41886 h -1.89659 l -1.08378,-2.98037 -2.70943,-1.62564 -25.46857,11.10864 -1.08378,4.33508 -5.96075,5.68978 -0.54187,2.70943 -1.35473,0.27095 -1.35471,-0.81283 -26.28142,-6.23168 -1.08377,2.16755 -8.94111,-0.27094 -30.61651,-22.21729 h -23.03011 l -4.60602,-1.8966 -0.27093,-2.98038 h -41.45423 l -9.48299,9.483 2.43849,10.02486 3.52225,0.54191 1.8966,4.87696 h 4.06415 l -0.81284,4.60601 -0.81283,0.81283 -0.27095,5.1479 1.62566,2.98037 2.70944,1.62567 0.27093,4.33509 5.14791,2.16752 0.81283,5.6898 2.98036,2.16753 0.81282,2.4385 -2.16754,2.98035 3.52226,5.14792 -1.08376,3.52225 1.62565,4.06414 v 1.62565 l -0.81282,5.14791 -2.16755,1.62565 -1.35472,3.25132 -1.62565,0.54189 0.81283,5.96073 -4.60603,0.54187 -2.16752,2.70944 -2.16754,-1.3547 -0.27094,5.68979 -2.4385,4.06414 h -2.70942 v 2.43847 l -3.25131,1.08376 -1.08377,4.60603 v 3.79321 l -3.52226,2.43847 -0.81282,4.33509 1.08376,2.98037 1.89661,1.08377 1.62564,-1.08377 -0.81282,2.98037 2.98036,1.3547 1.35472,3.52226 3.25131,-1.8966 -0.54188,-2.43848 h 4.60601 l 5.14793,-2.43848 1.35471,2.98036 2.43848,2.16754 -0.81283,0.81283 -2.70944,-0.54187 -1.3547,1.89658 -1.89661,-0.81281 -4.60601,-0.27096 -0.5419,1.8966 2.43849,1.62565 -2.16754,1.62565 -1.62566,-1.62565 -2.16754,1.08377 -1.62565,-1.08377 -2.70943,-0.81283 0.54189,3.25131 h -2.43848 l -1.35473,4.60602 2.4385,2.43851 2.43848,1.35469 -1.89659,3.79321 z"
         inkscape:connector-curvature="0" />
      <path
         id="path22083"
         style="fill:#ffffff;fill-opacity:1;fill-rule:evenodd;stroke:#000000;stroke-width:3.03275;stroke-linecap:butt;stroke-linejoin:miter;stroke-miterlimit:4;stroke-dasharray:none;stroke-opacity:1"
         d="m -154.44736,33.04344 2.98449,-2.98449 v -1.8653 l 2.98449,-0.37306 1.74095,-3.35755 0.37306,4.47673 -1.6166,1.11918 0.24871,2.61143 -2.11401,-0.12435 0.62177,2.48707 -1.11919,-0.12435 -0.12435,-1.6166 z"
         inkscape:connector-curvature="0" />
      <path
         id="path22085"
         style="fill:#ffffff;fill-opacity:1;fill-rule:evenodd;stroke:#000000;stroke-width:3.03275;stroke-linecap:butt;stroke-linejoin:miter;stroke-miterlimit:4;stroke-dasharray:none;stroke-opacity:1"
         d="m -164.89307,-14.45966 0.12436,-5.59592 -1.11919,-0.99483 3.73061,-2.86013 0.62177,-3.35755 3.85497,-1.49225 -1.11919,3.73061 -1.49224,0.37306 -0.49741,4.47674 2.11401,2.73578 v 2.48707 l 1.8653,1.11918 2.48708,3.35755 v 2.61143 l -1.74095,1.36789 -3.48191,-4.22802 -3.23319,0.99483 z"
         inkscape:connector-curvature="0" />
      <path
         id="path22087"
         style="fill:#ffffff;fill-opacity:1;fill-rule:evenodd;stroke:#000000;stroke-width:3.03275;stroke-linecap:butt;stroke-linejoin:miter;stroke-miterlimit:4;stroke-dasharray:none;stroke-opacity:1"
         d="m -152.4577,-36.09721 0.74612,-3.35755 1.49225,-3.85496 -2.61143,-6.46639 2.98449,0.37306 1.11918,2.86014 1.98966,0.74612 0.24871,-2.98449 c 0,0 1.36789,-0.99483 0.87047,0.49741 -0.49741,1.49225 -1.11918,6.83946 -1.11918,6.83946 l 1.49225,3.23319 -2.23837,2.98449 -2.48707,2.48707 z"
         inkscape:connector-curvature="0" />
      <path
         id="path22081"
         style="fill:#ffffff;fill-opacity:1;fill-rule:evenodd;stroke:#000000;stroke-width:3.03275;stroke-linecap:butt;stroke-linejoin:miter;stroke-miterlimit:4;stroke-dasharray:none;stroke-opacity:1"
         d="m -132.68546,99.82137 -11.44054,8.95346 -15.17115,5.96898 -3.73061,2.73578 -7.70993,0.24871 -5.47156,1.98966 -3.73061,1.24354 -4.22803,4.47673 -6.7151,-4.72544 h -7.95863 l -2.73578,2.98449 -0.49742,4.47673 -5.22285,2.48707 -3.2332,-0.74612 -1.98966,2.48707 -8.95346,-1.24353 -2.73578,-2.98449 -4.72544,0.74612 -6.46639,4.72544 -2.98449,-0.99483 -0.74613,-1.74095 -2.23836,0.49742 -1.98966,1.24353 -3.73061,-0.74612 0.24871,-2.98449 -2.98449,-0.99483 -3.2332,-4.47673 -4.22802,0.49741 -1.24354,2.23837 -2.98449,2.73578 -3.4819,-1.24354 -12.68408,0.24871 -3.23319,-5.96897 h -2.98449 l -3.97932,-7.70993 0.24871,-4.97415 1.49224,-1.24354 0.49742,-5.22285 -3.2332,-2.48708 0.74612,-7.95863 -1.49224,-2.23837 -0.49742,-3.4819 -5.72026,-5.72027 0.49741,-2.48707 -7.70993,-5.47157 h -1.98966 l -0.49741,4.97415 -2.73578,-0.49741 -1.98966,-2.23837 -8.45605,1.74095 -3.48191,-4.22802 -3.73061,0.49741 -3.4819,-2.73578 -4.47673,0.24871 -3.4819,-3.48191 -7.21252,0.24871 -1.74095,-4.97414 -4.72544,0.49741 -2.23837,-1.98966 -5.47156,0.49742 -0.49741,-2.98449 -6.46639,-0.49742 -3.2332,-2.48707 -0.24871,-4.47673 -4.97414,-2.23837 -4.47674,0.99483 -1.74095,-5.47156 -3.73061,-3.48191 -0.99483,-4.72544 -5.72027,-8.45605 v -2.98448 l -3.23319,-3.48191 v -7.21251 l -2.98449,-2.98449 0.24871,-3.2332 1.49224,-0.2487 -0.24871,-2.73578 -4.22802,-2.98449 -1.74096,-3.2332 -5.96897,-5.72027 -2.73578,0.99483 h -2.73578 l -5.72027,-6.9638 -0.24871,-3.48191 2.48707,-3.23319 h 3.2332 l 1.24354,-2.48708 -0.74613,-2.98448 -4.97414,-8.45606 0.49741,-4.22802 1.98966,-1.49224 -1.24354,-4.97415 -5.22285,-4.72544 v -5.72027 l 1.24354,-3.73061 v -1.74095 l 4.72544,-2.23837 2.73578,-1.49224 2.73578,-1.98966 0.49741,-2.48708 4.47674,-2.48707 -0.24871,-2.48707 4.72544,-4.22803 0.2487,-3.23319 1.74096,-4.22803 5.72027,-2.48707 -0.24871,-1.49225 4.72544,-2.48707 -0.49742,-6.21769 0.99483,-1.98965 -2.23836,-1.24354 -1.98966,0.49741 -3.2332,-1.49224 -3.4819,0.99483 -0.99483,-2.98449 3.2332,-3.73061 -1.74096,-1.49224 2.23837,-4.72544 8.45605,-1.24354 -0.24871,-6.21769 1.49225,-1.98965 -3.2332,-4.72544 0.49742,-7.70993 -2.23837,-2.73578 0.49741,-2.23837 -4.72544,-2.98449 -3.23319,-5.72027 4.97415,-0.74612 2.23836,-1.74095 h 29.09876 l 1.24354,2.23837 0.24871,2.73578 -0.99483,0.99483 -0.99483,3.73061 -1.24354,2.98448 -0.2487,1.49225 -0.24871,3.23319 -0.74612,3.73061 -1.24354,1.24354 v 2.98449 l -1.24354,1.24354 2.48708,0.49741 -0.74613,3.4819 -0.99483,3.73062 2.23837,0.74612 4.22803,-0.49742 -2.48708,4.72544 -0.99483,3.73061 1.24354,4.72544 3.4819,-2.98449 2.73578,1.98966 -0.74612,-4.22802 1.24354,-3.4819 3.23319,1.74095 1.24354,-1.49225 -1.98966,-2.98449 3.73061,-3.23319 2.98449,4.22802 2.73578,0.49742 1.74095,3.97932 2.48708,-5.22286 0.99483,3.73061 3.23319,-0.74612 0.24871,3.97932 2.23837,3.23319 -3.97932,1.98966 0.24871,4.22803 2.48707,-0.74612 0.24871,-3.2332 3.23319,-0.99483 -1.49224,-3.2332 -0.99483,-3.4819 3.73061,-5.22285 2.73578,0.49741 2.23837,3.4819 5.47156,-0.2487 5.22285,-4.97415 6.46639,-1.98966 -1.24353,-4.47673 h -1.74095 l -2.48708,2.98449 -7.46122,-1.24354 -2.73578,-1.49224 -1.98966,1.24353 -2.23836,0.74612 -6.4664,-2.98448 v -2.48708 l -1.74095,-1.24353 2.73578,-0.99483 1.98966,2.48707 1.98966,-0.24871 2.48707,-1.24353 3.2332,2.98448 4.97415,-0.99483 v -2.48707 l -3.2332,-0.99483 0.49742,-1.98966 4.97414,-0.2487 1.24354,-1.74096 4.22803,-1.24353 -2.48708,-3.48191 0.24871,-1.98966 7.21251,1.98966 -3.23319,-3.4819 0.74612,-3.23319 4.72544,2.73578 0.24871,-1.24354 -3.73061,-2.73578 5.22285,-5.22286 97.742,53.22338 0.99483,7.46122 -3.48191,2.23837 v 3.97931 l 4.22803,-0.49741 0.2487,3.97932 37.30611,25.11944 2.48707,4.22803 -1.98966,2.23836 -1.74095,3.73061 -0.99483,5.72027 -1.74095,2.98449 v 4.97415 l -3.23319,3.23319 -2.48708,6.21769 v 4.72544 l 1.98966,3.23319 -1.24354,4.97415 3.73062,3.2332 h 2.98448 l 7.21252,8.45605 3.73061,3.4819 1.74095,3.73061 -1.98966,4.72544 -2.48707,0.74612 -2.23837,7.70993 0.24871,5.72027 2.73578,2.73578 -0.74612,3.73061 -1.98966,4.97415 -1.49225,4.97415 1.49225,5.47156 1.98966,4.22802 1.74095,1.24354 v 3.4819 l -1.49225,-0.2487 1.98966,4.72544 3.48191,1.24353 0.49741,6.96381 -1.49224,-0.24871 0.2487,1.98966 3.48191,2.73578 1.49224,7.70993 -1.74095,2.73578 0.99483,1.49225 4.47673,0.99483 1.74095,3.97931 3.48191,-1.24353 5.47156,2.98449 2.23836,3.4819 z"
         inkscape:connector-curvature="0" />
    </g>
    <path
       style="fill:#ffffff;fill-rule:evenodd;stroke:#000000;stroke-width:0.286271;stroke-miterlimit:4;stroke-dasharray:none"
       inkscape:connector-curvature="0"
       class="landxx rw"
       id="rw"
       d="m 286.15648,151.14802 c -0.1428,-0.25158 0.59815,-0.68188 0.59006,-1.01717 -0.0134,-0.58917 0.29638,-0.84468 0.88373,-1.13685 0.0727,-0.0364 0.42301,-0.22667 0.51461,-0.16556 0.12396,0.0823 0.17245,0.36665 0.37182,0.17778 0.15628,-0.14827 0.6682,-0.80109 0.95649,-0.7153 -0.13472,0.33782 0.20475,0.76419 0.38528,1.01463 0.22363,0.31291 0.45265,0.85113 0.39338,1.21041 -0.0755,0.45196 -0.37721,0.51076 -0.82446,0.36572 -0.50384,-0.16465 -0.62778,0.22806 -1.06156,-0.10054 -0.0647,0.40793 -0.0242,0.85298 -0.60084,0.95536 -0.29369,0.0521 -0.56581,0.0849 -0.71131,-0.16672 -0.15626,-0.27671 -0.57658,-0.25458 -0.60891,0.0761 -0.18322,-0.1462 -0.27212,-0.28133 -0.28829,-0.49786" />
    <path
       style="fill:#ffffff;fill-rule:evenodd;stroke:#000000;stroke-width:0.286271;stroke-miterlimit:4;stroke-dasharray:none"
       inkscape:connector-curvature="0"
       class="landxx bi"
       id="bi"
       d="m 286.44477,151.6461 c 0.25327,-0.70031 0.69515,0.0652 0.7598,0.0717 0.90529,0.0899 1.08581,-0.16303 1.16126,-0.93646 0.49575,0.36528 0.33679,-0.16349 1.46032,0.16972 -0.1913,0.0789 -0.67089,0.52693 -0.29637,0.51285 -0.31794,0.70725 0.30984,0.73492 0.66011,0.64567 -0.21556,0.27787 0.26403,0.39457 -0.1913,0.67289 -0.28023,0.17203 -0.27213,0.0754 -0.33681,0.3851 -0.0162,0.0761 -0.34217,0.0383 -0.39606,0.13674 -0.0621,0.10954 0.19669,0.36043 0.16436,0.42984 -0.0188,0.0452 -0.15897,0.28456 -0.39607,0.43283 -0.36911,0.23244 -0.42031,0.5064 -0.81638,0.72338 -0.194,0.107 -0.39069,0.1386 -0.5658,0.13883 -0.0701,-0.20155 -0.48766,-0.95998 -0.5685,-1.2088 -0.11855,-0.35904 0.0486,-0.73076 -0.23171,-1.04253 0.0323,-0.17595 0.13202,-0.39063 -0.0322,-0.58572 -0.14551,-0.17249 -0.30985,-0.33482 -0.37452,-0.54606" />
  </g>
</svg>
