<?xml version="1.0" encoding="utf-8"?>
<!-- Generator: Adobe Illustrator 24.1.3, SVG Export Plug-In . SVG Version: 6.00 Build 0)  -->
<svg version="1.1" id="Layer_1" xmlns="http://www.w3.org/2000/svg" xmlns:xlink="http://www.w3.org/1999/xlink" x="0px" y="0px"
	 viewBox="0 0 595.28 196.8" style="enable-background:new 0 0 595.28 196.8;" xml:space="preserve">
<style type="text/css">
	.st0{fill:#FFFFFF;}
	.st1{fill:#ED1E25;}
</style>
<g>
	<g>
		<circle class="st0" cx="91.72" cy="101.45" r="79.34"/>
		<g>
			<path class="st1" d="M98.4,87.9c1.74,4.51,3.73,8.94,5.16,13.54c2.27,7.31,6.84,12,13.98,14.86c3.64,1.46,7.03,3.99,9.94,6.68
				c4.69,4.33,8.84,4.57,12.45-0.76c2.3-3.39,3.67-7.45,5.21-11.3c0.98-2.47-0.31-4.08-2.79-4.6c-2.82-0.59-5.68-0.98-8.51-1.53
				c-3.27-0.64-4.75-2.72-4.15-5.98c0.59-3.21,3.08-3.6,5.76-3.27c2.34,0.29,4.66,0.74,6.98,1.18c2.54,0.47,4.12-0.45,4.47-3.06
				c0.59-4.42,1.21-8.84,1.59-13.27c0.3-3.46-1.36-5.85-4.81-6.65c-5.44-1.28-9.49-4.42-12.26-9.15
				c-10.07-17.17-25.55-27-44.08-32.74c-0.49-0.15-0.95-0.38-1.56-0.63c22.58-3.35,58.42,9.15,71.65,42.61
				c12.64,31.98,0.94,71.9-25.4,85.11c-0.17-0.79-0.48-1.52-0.47-2.25c0.19-9.33-3.96-16.67-10.5-22.88
				c-4.38-4.15-8.82-8.25-13.31-12.28C97.51,112.37,94.88,100.97,98.4,87.9z"/>
			<path d="M36.08,144.85c-6.84-8.89-12.06-18.66-13.9-29.85c-4.46-27.19,2.83-50.53,24.39-68.31c9.16-7.55,19.95-11.6,32.25-8.76
				c1.22,0.28,2.37,0.83,4.67,1.65c-27.03,13.52-43.37,33.25-42.47,64.22c3.9-4.8,7.54-9.86,11.79-14.33
				c4.29-4.51,9.21-8.43,13.85-12.61c0.35,0.31,0.69,0.62,1.04,0.93c-0.95,1.27-1.9,2.53-2.85,3.8
				c-6.21,8.29-12.63,16.43-18.57,24.9c-6.43,9.17-9.57,19.46-8.94,30.78c0.13,2.43,0.02,4.88,0.02,7.32
				C36.94,144.67,36.51,144.76,36.08,144.85z"/>
			<path d="M62.09,165.87c0.72-1.36,0.82-1.8,1.09-2.02c11.62-9.55,14.94-22.83,16.92-36.86c0.65-4.61,2.21-9.12,3.68-13.57
				c0.51-1.55,2-2.77,3.58-4.85c0.72,7.37,1.29,13.68,1.98,19.97c0.51,4.68,1.43,9.32,1.75,14.01c0.7,9.98-2.92,18.49-9.65,25.69
				c-0.99,1.06-3.02,2.08-4.29,1.8C72.24,169,67.43,167.41,62.09,165.87z"/>
			<path d="M82.58,82.58c-1.99,3.83-3.9,7.7-5.99,11.47c-4.13,7.46-6,15.44-4.76,23.86c2.49,17.01-4.92,29.35-17.74,39.42
				c-2.04,1.61-3.51,1.73-5.38-0.04c-2.06-1.95-4.29-3.71-6.46-5.57c0.47-0.7,0.61-1.11,0.89-1.31
				c13.12-9.1,18.74-22.43,21.18-37.55c1.26-7.8,2.68-15.61,7.76-21.97c2.76-3.45,6.2-6.36,9.34-9.51
				C81.81,81.78,82.19,82.18,82.58,82.58z"/>
			<path d="M114.33,168.71c-5.55,1.08-11.41,2.22-18.01,3.5c0.56-10.2,1.06-19.36,1.54-28.08
				C103.16,152.04,108.49,160,114.33,168.71z"/>
			<path d="M99.21,60.51c1.53-0.41,3.04-0.99,4.59-1.2c2.06-0.28,4.16-0.31,6.24-0.39c8.11-0.31,10.59,2.96,8.26,12.18
				c-3.56-9.49-12.17-7.35-19.02-9.1C99.26,61.51,99.23,61.01,99.21,60.51z"/>
		</g>
	</g>
	<g>
		<g>
			<path d="M187.4,109.12c0.62-1.63,0.82-1.92,1.13-1.92c0.31,0,0.51,0.25,1.13,1.77c0.77,1.87,8.83,22.22,11.96,29.7
				c1.85,4.38,3.34,5.17,4.42,5.47c0.77,0.25,1.54,0.3,2.05,0.3c0.31,0,0.51,0.05,0.51,0.3c0,0.3-0.46,0.39-1.03,0.39
				c-0.77,0-4.52,0-8.06-0.1c-0.98-0.05-1.54-0.05-1.54-0.34c0-0.2,0.15-0.3,0.36-0.34c0.31-0.1,0.62-0.54,0.31-1.33l-4.78-12.12
				c-0.1-0.2-0.21-0.3-0.46-0.3h-11.04c-0.26,0-0.41,0.15-0.51,0.39l-3.08,8.72c-0.46,1.23-0.72,2.41-0.72,3.3
				c0,0.99,1.08,1.43,1.95,1.43h0.51c0.36,0,0.51,0.1,0.51,0.3c0,0.3-0.31,0.39-0.77,0.39c-1.23,0-3.44-0.15-4.01-0.15
				c-0.56,0-3.39,0.15-5.8,0.15c-0.67,0-0.98-0.1-0.98-0.39c0-0.2,0.21-0.3,0.46-0.3c0.36,0,1.08-0.05,1.49-0.1
				c2.36-0.3,3.39-2.17,4.31-4.63L187.4,109.12z M192.74,128.83c0.26,0,0.26-0.15,0.21-0.34l-4.88-13.3c-0.26-0.74-0.51-0.74-0.77,0
				l-4.52,13.3c-0.1,0.25,0,0.34,0.15,0.34H192.74z"/>
			<path d="M212.05,125.6c0-6.53,0-7.7-0.09-9.04c-0.09-1.42-0.44-2.09-1.88-2.39c-0.35-0.08-1.09-0.13-1.48-0.13
				c-0.17,0-0.35-0.08-0.35-0.25c0-0.25,0.22-0.34,0.7-0.34c1.96,0,4.63,0.13,5.02,0.13c0.39,0,3.01-0.13,4.32-0.13
				c0.48,0,0.7,0.08,0.7,0.34c0,0.17-0.17,0.25-0.35,0.25c-0.31,0-0.57,0.04-1.09,0.13c-1.18,0.17-1.53,0.92-1.61,2.39
				c-0.09,1.34-0.09,2.51-0.09,9.04v5.86c0,6.03,1.4,8.62,3.27,10.34c2.14,1.93,4.1,2.3,6.59,2.3c2.66,0,5.28-1.21,6.85-3.01
				c2.01-2.39,2.53-5.95,2.53-10.26v-5.23c0-6.53,0-7.7-0.09-9.04c-0.09-1.42-0.44-2.09-1.88-2.39c-0.35-0.08-1.09-0.13-1.48-0.13
				c-0.17,0-0.35-0.08-0.35-0.25c0-0.25,0.22-0.34,0.7-0.34c1.96,0,4.36,0.13,4.63,0.13c0.31,0,2.36-0.13,3.67-0.13
				c0.48,0,0.7,0.08,0.7,0.34c0,0.17-0.17,0.25-0.35,0.25c-0.31,0-0.57,0-1.09,0.13c-1.18,0.21-1.53,0.92-1.61,2.39
				c-0.09,1.34-0.09,2.51-0.09,9.04v4.48c0,4.52-0.52,9.55-4.02,12.52c-3.14,2.68-6.42,3.1-8.99,3.1c-1.48,0-5.89-0.17-8.99-2.97
				c-2.14-1.97-3.8-4.9-3.8-11.01V125.6z"/>
			<path d="M260.1,132.97c0,4.02,0,7.33,0.22,9.09c0.13,1.21,0.39,2.14,1.7,2.3c0.61,0.08,1.57,0.17,1.96,0.17
				c0.26,0,0.35,0.13,0.35,0.25c0,0.21-0.22,0.34-0.7,0.34c-2.4,0-5.15-0.13-5.37-0.13c-0.22,0-2.97,0.13-4.28,0.13
				c-0.48,0-0.7-0.08-0.7-0.34c0-0.13,0.09-0.25,0.35-0.25c0.39,0,0.92-0.08,1.31-0.17c0.87-0.17,1.09-1.09,1.27-2.3
				c0.22-1.76,0.22-5.07,0.22-9.09v-17.71l-6.46,0.08c-2.71,0.04-3.75,0.34-4.45,1.34c-0.48,0.71-0.61,1-0.74,1.3
				c-0.13,0.34-0.26,0.42-0.44,0.42c-0.13,0-0.22-0.13-0.22-0.38c0-0.42,0.87-4.02,0.96-4.35c0.09-0.25,0.26-0.8,0.44-0.8
				c0.31,0,0.74,0.42,1.92,0.5c1.27,0.13,2.92,0.21,3.45,0.21h16.37c2.79,0,3.97-0.42,4.32-0.42c0.22,0,0.22,0.25,0.22,0.5
				c0,1.26-0.13,4.15-0.13,4.61c0,0.38-0.13,0.54-0.31,0.54c-0.22,0-0.31-0.13-0.35-0.71l-0.04-0.46c-0.17-1.26-1.18-2.22-5.37-2.3
				l-5.5-0.08V132.97z"/>
			<path d="M307.32,132.97c0,4.02,0,7.33,0.22,9.09c0.13,1.21,0.39,2.14,1.7,2.3c0.61,0.08,1.57,0.17,1.96,0.17
				c0.26,0,0.35,0.13,0.35,0.25c0,0.21-0.22,0.34-0.7,0.34c-2.4,0-5.15-0.13-5.37-0.13c-0.22,0-2.97,0.13-4.28,0.13
				c-0.48,0-0.7-0.08-0.7-0.34c0-0.13,0.09-0.25,0.35-0.25c0.39,0,0.92-0.08,1.31-0.17c0.87-0.17,1.09-1.09,1.27-2.3
				c0.22-1.76,0.22-5.07,0.22-9.09v-4.4c0-0.17-0.13-0.25-0.26-0.25h-18.51c-0.13,0-0.26,0.04-0.26,0.25v4.4
				c0,4.02,0,7.33,0.22,9.09c0.13,1.21,0.39,2.14,1.7,2.3c0.61,0.08,1.57,0.17,1.96,0.17c0.26,0,0.35,0.13,0.35,0.25
				c0,0.21-0.22,0.34-0.7,0.34c-2.4,0-5.15-0.13-5.37-0.13c-0.22,0-2.97,0.13-4.28,0.13c-0.48,0-0.7-0.08-0.7-0.34
				c0-0.13,0.09-0.25,0.35-0.25c0.39,0,0.92-0.08,1.31-0.17c0.87-0.17,1.09-1.09,1.27-2.3c0.22-1.76,0.22-5.07,0.22-9.09v-7.37
				c0-6.53,0-7.7-0.09-9.04c-0.09-1.42-0.44-2.09-1.88-2.39c-0.35-0.08-1.09-0.13-1.48-0.13c-0.17,0-0.35-0.08-0.35-0.25
				c0-0.25,0.22-0.34,0.7-0.34c1.96,0,4.71,0.13,4.93,0.13c0.22,0,2.97-0.13,4.28-0.13c0.48,0,0.7,0.08,0.7,0.34
				c0,0.17-0.17,0.25-0.35,0.25c-0.31,0-0.57,0.04-1.09,0.13c-1.18,0.21-1.53,0.92-1.61,2.39c-0.09,1.34-0.09,2.51-0.09,9.04v0.88
				c0,0.21,0.13,0.25,0.26,0.25h18.51c0.13,0,0.26-0.04,0.26-0.25v-0.88c0-6.53,0-7.7-0.09-9.04c-0.09-1.42-0.44-2.09-1.88-2.39
				c-0.35-0.08-1.09-0.13-1.48-0.13c-0.17,0-0.35-0.08-0.35-0.25c0-0.25,0.22-0.34,0.7-0.34c1.96,0,4.71,0.13,4.93,0.13
				c0.22,0,2.97-0.13,4.28-0.13c0.48,0,0.7,0.08,0.7,0.34c0,0.17-0.17,0.25-0.35,0.25c-0.31,0-0.57,0.04-1.09,0.13
				c-1.18,0.21-1.53,0.92-1.61,2.39c-0.09,1.34-0.09,2.51-0.09,9.04V132.97z"/>
			<path d="M333.99,112.87c9.82,0,17.15,5.95,17.15,15.7c0,9.38-6.9,17.12-17.42,17.12c-11.96,0-16.93-8.92-16.93-16.45
				C316.8,122.46,321.95,112.87,333.99,112.87z M334.91,144.1c3.93,0,12.05-2.18,12.05-14.36c0-10.05-6.37-15.45-13.27-15.45
				c-7.29,0-12.74,4.61-12.74,13.77C320.94,137.83,327.05,144.1,334.91,144.1z"/>
			<path d="M360.4,125.6c0-6.53,0-7.7-0.09-9.04c-0.09-1.42-0.44-2.09-1.88-2.39c-0.35-0.08-1.09-0.13-1.48-0.13
				c-0.17,0-0.35-0.08-0.35-0.25c0-0.25,0.22-0.34,0.7-0.34c1.96,0,4.71,0.13,4.93,0.13c0.48,0,3.8-0.13,5.15-0.13
				c2.75,0,5.67,0.25,7.99,1.84c1.09,0.75,3.01,2.81,3.01,5.69c0,3.1-1.35,6.2-5.28,9.67c3.58,4.4,6.55,8.12,9.08,10.72
				c2.36,2.39,4.23,2.85,5.32,3.01c0.83,0.13,1.44,0.13,1.7,0.13c0.22,0,0.39,0.13,0.39,0.25c0,0.25-0.26,0.34-1.05,0.34h-3.1
				c-2.44,0-3.54-0.21-4.67-0.8c-1.88-0.96-3.4-3.01-5.89-6.15c-1.83-2.3-3.88-5.11-4.76-6.2c-0.17-0.17-0.31-0.25-0.57-0.25
				l-5.37-0.08c-0.22,0-0.31,0.13-0.31,0.34v1c0,4.02,0,7.33,0.22,9.09c0.13,1.21,0.39,2.14,1.7,2.3c0.61,0.08,1.57,0.17,1.96,0.17
				c0.26,0,0.35,0.13,0.35,0.25c0,0.21-0.22,0.34-0.7,0.34c-2.4,0-5.15-0.13-5.37-0.13c-0.04,0-2.79,0.13-4.1,0.13
				c-0.48,0-0.7-0.08-0.7-0.34c0-0.13,0.09-0.25,0.35-0.25c0.39,0,0.92-0.08,1.31-0.17c0.87-0.17,1.09-1.09,1.27-2.3
				c0.22-1.76,0.22-5.07,0.22-9.09V125.6z M363.89,129.24c0,0.21,0.09,0.38,0.31,0.5c0.65,0.38,2.66,0.67,4.58,0.67
				c1.05,0,2.27-0.13,3.27-0.8c1.53-1.01,2.66-3.27,2.66-6.45c0-5.23-2.88-8.37-7.55-8.37c-1.31,0-2.49,0.13-2.92,0.25
				c-0.22,0.08-0.35,0.25-0.35,0.5V129.24z"/>
			<path d="M396.97,132.97c0,4.02,0,7.33,0.22,9.09c0.13,1.21,0.39,2.14,1.7,2.3c0.61,0.08,1.57,0.17,1.96,0.17
				c0.26,0,0.35,0.13,0.35,0.25c0,0.21-0.22,0.34-0.7,0.34c-2.4,0-5.15-0.13-5.37-0.13c-0.22,0-2.97,0.13-4.28,0.13
				c-0.48,0-0.7-0.08-0.7-0.34c0-0.13,0.09-0.25,0.35-0.25c0.39,0,0.92-0.08,1.31-0.17c0.87-0.17,1.09-1.09,1.27-2.3
				c0.22-1.76,0.22-5.07,0.22-9.09v-7.37c0-6.53,0-7.7-0.09-9.04c-0.09-1.42-0.52-2.14-1.48-2.34c-0.48-0.13-1.05-0.17-1.35-0.17
				c-0.17,0-0.35-0.08-0.35-0.25c0-0.25,0.22-0.34,0.7-0.34c1.44,0,4.19,0.13,4.41,0.13c0.22,0,2.97-0.13,4.28-0.13
				c0.48,0,0.7,0.08,0.7,0.34c0,0.17-0.17,0.25-0.35,0.25c-0.31,0-0.57,0.04-1.09,0.13c-1.18,0.21-1.53,0.92-1.61,2.39
				c-0.09,1.34-0.09,2.51-0.09,9.04V132.97z"/>
			<path d="M421.81,132.97c0,4.02,0,7.33,0.22,9.09c0.13,1.21,0.39,2.14,1.7,2.3c0.61,0.08,1.57,0.17,1.96,0.17
				c0.26,0,0.35,0.13,0.35,0.25c0,0.21-0.22,0.34-0.7,0.34c-2.4,0-5.15-0.13-5.37-0.13s-2.97,0.13-4.28,0.13
				c-0.48,0-0.7-0.08-0.7-0.34c0-0.13,0.09-0.25,0.35-0.25c0.39,0,0.92-0.08,1.31-0.17c0.87-0.17,1.09-1.09,1.27-2.3
				c0.22-1.76,0.22-5.07,0.22-9.09v-17.71l-6.46,0.08c-2.71,0.04-3.75,0.34-4.45,1.34c-0.48,0.71-0.61,1-0.74,1.3
				c-0.13,0.34-0.26,0.42-0.44,0.42c-0.13,0-0.22-0.13-0.22-0.38c0-0.42,0.87-4.02,0.96-4.35c0.09-0.25,0.26-0.8,0.44-0.8
				c0.31,0,0.74,0.42,1.92,0.5c1.27,0.13,2.92,0.21,3.45,0.21h16.37c2.79,0,3.97-0.42,4.32-0.42c0.22,0,0.22,0.25,0.22,0.5
				c0,1.26-0.13,4.15-0.13,4.61c0,0.38-0.13,0.54-0.31,0.54c-0.22,0-0.31-0.13-0.35-0.71l-0.04-0.46c-0.17-1.26-1.18-2.22-5.37-2.3
				l-5.5-0.08V132.97z"/>
			<path d="M448.47,134.27c0-2.26-0.44-3.18-1-4.4c-0.31-0.67-6.15-9.88-7.68-12.06c-1.09-1.55-2.18-2.6-2.97-3.1
				c-0.66-0.42-1.48-0.67-1.88-0.67c-0.22,0-0.44-0.08-0.44-0.29c0-0.17,0.17-0.29,0.57-0.29c0.83,0,4.1,0.13,4.32,0.13
				c0.31,0,1.96-0.13,3.67-0.13c0.48,0,0.57,0.13,0.57,0.29c0,0.17-0.26,0.21-0.66,0.38c-0.35,0.17-0.57,0.42-0.57,0.75
				c0,0.5,0.22,1,0.57,1.63c0.7,1.21,7.25,12.02,8.03,13.23c0.83-1.76,6.37-10.93,7.24-12.31c0.57-0.88,0.74-1.59,0.74-2.14
				c0-0.59-0.17-1.05-0.7-1.17c-0.39-0.13-0.66-0.21-0.66-0.42c0-0.17,0.26-0.25,0.7-0.25c1.14,0,2.53,0.13,2.88,0.13
				c0.26,0,3.4-0.13,4.23-0.13c0.31,0,0.57,0.08,0.57,0.25c0,0.21-0.22,0.33-0.57,0.33c-0.48,0-1.31,0.17-2.01,0.59
				c-0.87,0.5-1.35,1.01-2.31,2.14c-1.44,1.67-7.55,11.51-8.34,13.31c-0.66,1.51-0.66,2.81-0.66,4.19v3.6c0,0.67,0,2.43,0.13,4.19
				c0.09,1.21,0.48,2.14,1.79,2.3c0.61,0.08,1.57,0.17,1.96,0.17c0.26,0,0.35,0.13,0.35,0.25c0,0.21-0.22,0.34-0.7,0.34
				c-2.4,0-5.15-0.13-5.37-0.13s-2.97,0.13-4.28,0.13c-0.48,0-0.7-0.08-0.7-0.34c0-0.13,0.09-0.25,0.35-0.25
				c0.39,0,0.92-0.08,1.31-0.17c0.87-0.17,1.27-1.09,1.35-2.3c0.13-1.76,0.13-3.52,0.13-4.19V134.27z"/>
		</g>
	</g>
	<g>
		<path d="M180.01,77.43c0-7.68,0-9.06-0.1-10.64c-0.1-1.67-0.51-2.46-2.21-2.81c-0.41-0.1-1.28-0.15-1.75-0.15
			c-0.21,0-0.41-0.1-0.41-0.3c0-0.3,0.26-0.39,0.82-0.39c2.31,0,5.34,0.15,5.65,0.15c0.46,0,3.44-0.15,4.98-0.15
			c0.56,0,0.82,0.1,0.82,0.39c0,0.2-0.21,0.3-0.41,0.3c-0.36,0-0.67,0.05-1.28,0.15c-1.39,0.25-1.8,1.08-1.9,2.81
			c-0.1,1.58-0.1,2.96-0.1,10.64v2.96h0.21c0.87-0.94,10.17-10,12.02-11.92c1.44-1.43,2.77-2.71,2.77-3.55
			c0-0.59-0.26-0.89-0.67-1.03c-0.26-0.1-0.46-0.2-0.46-0.39c0-0.25,0.26-0.34,0.62-0.34c1.03,0,2.62,0.15,3.85,0.15
			c0.26,0,3.65-0.15,4.93-0.15c0.56,0,0.77,0.1,0.77,0.34c0,0.25-0.1,0.34-0.51,0.34c-0.77,0-1.85,0.25-2.88,0.69
			c-2.11,0.89-3.24,2.12-5.55,4.24c-1.28,1.18-10.22,9.56-11.3,10.79c1.34,1.43,12.02,12.02,14.12,13.89
			c4.31,3.84,5.19,4.63,7.65,5.62c1.33,0.54,2.82,0.64,3.18,0.64c0.36,0,0.67,0.1,0.67,0.3c0,0.25-0.26,0.39-1.13,0.39h-2.62
			c-1.44,0-2.41,0-3.54-0.1c-2.72-0.25-4.01-1.33-6.21-3c-2.31-1.82-13.2-13.1-15.66-16.01h-0.26v4.83c0,4.73,0,8.62,0.26,10.69
			c0.15,1.43,0.46,2.51,2,2.71c0.72,0.1,1.54,0.2,2,0.2c0.31,0,0.41,0.15,0.41,0.3c0,0.25-0.26,0.39-0.82,0.39
			c-2.52,0-5.49-0.15-5.91-0.15c-0.41,0-3.39,0.15-4.93,0.15c-0.56,0-0.82-0.1-0.82-0.39c0-0.15,0.1-0.3,0.41-0.3
			c0.46,0,1.08-0.1,1.54-0.2c1.03-0.2,1.28-1.28,1.49-2.71c0.26-2.07,0.26-5.96,0.26-10.69V77.43z"/>
		<path d="M217.25,80.85c0-6.53,0-7.7-0.09-9.04c-0.09-1.42-0.44-2.09-1.88-2.39c-0.35-0.08-1.09-0.13-1.48-0.13
			c-0.17,0-0.35-0.08-0.35-0.25c0-0.25,0.22-0.34,0.7-0.34c1.96,0,4.71,0.13,4.93,0.13c0.31,0,8.99,0,9.99-0.04
			c0.83-0.04,1.53-0.13,1.88-0.21c0.22-0.04,0.39-0.21,0.61-0.21c0.13,0,0.17,0.17,0.17,0.38c0,0.29-0.22,0.8-0.35,1.97
			c-0.04,0.42-0.13,2.26-0.22,2.76c-0.04,0.21-0.13,0.46-0.31,0.46c-0.26,0-0.35-0.21-0.35-0.54c0-0.29-0.04-1-0.26-1.51
			c-0.31-0.67-0.74-1.17-3.1-1.42c-0.74-0.08-5.5-0.13-5.98-0.13c-0.17,0-0.26,0.13-0.26,0.42v11.55c0,0.29,0.04,0.42,0.26,0.42
			c0.57,0,5.94,0,6.94-0.08c1.05-0.08,1.66-0.17,2.05-0.59c0.31-0.34,0.48-0.54,0.65-0.54c0.13,0,0.22,0.08,0.22,0.34
			c0,0.25-0.22,0.96-0.35,2.34c-0.09,0.84-0.17,2.39-0.17,2.68c0,0.34,0,0.8-0.31,0.8c-0.22,0-0.31-0.17-0.31-0.38
			c0-0.42,0-0.84-0.17-1.38c-0.17-0.59-0.57-1.3-2.27-1.46c-1.18-0.13-5.5-0.21-6.24-0.21c-0.22,0-0.31,0.13-0.31,0.29v3.68
			c0,1.42-0.04,6.28,0,7.16c0.13,2.89,0.79,3.43,5.06,3.43c1.13,0,3.06,0,4.19-0.46c1.13-0.46,1.66-1.3,1.96-3.01
			c0.09-0.46,0.17-0.63,0.39-0.63c0.26,0,0.26,0.34,0.26,0.63c0,0.34-0.35,3.18-0.57,4.06c-0.31,1.09-0.65,1.09-2.36,1.09
			c-6.59,0-9.51-0.25-10.78-0.25c-0.22,0-2.97,0.13-4.28,0.13c-0.48,0-0.7-0.08-0.7-0.34c0-0.13,0.09-0.25,0.35-0.25
			c0.39,0,0.92-0.08,1.31-0.17c0.87-0.17,1.09-1.09,1.27-2.3c0.22-1.76,0.22-5.07,0.22-9.09V80.85z"/>
		<path d="M245.05,94.67c0.09,3.43,0.52,4.52,1.7,4.86c0.83,0.21,1.79,0.25,2.18,0.25c0.22,0,0.35,0.08,0.35,0.25
			c0,0.25-0.26,0.34-0.79,0.34c-2.49,0-4.23-0.13-4.63-0.13c-0.39,0-2.23,0.13-4.19,0.13c-0.44,0-0.7-0.04-0.7-0.34
			c0-0.17,0.13-0.25,0.35-0.25c0.35,0,1.13-0.04,1.79-0.25c1.09-0.29,1.31-1.51,1.31-5.32l0.04-23.99c0-1.63,0.13-2.09,0.48-2.09
			s1.09,0.92,1.53,1.34c0.65,0.71,7.16,7.45,13.88,14.36c4.32,4.44,9.08,9.55,10.48,10.93l-0.48-21.27
			c-0.04-2.72-0.35-3.64-1.7-3.98c-0.79-0.17-1.79-0.21-2.14-0.21c-0.31,0-0.35-0.13-0.35-0.29c0-0.25,0.35-0.29,0.87-0.29
			c1.96,0,4.06,0.13,4.54,0.13s1.92-0.13,3.71-0.13c0.48,0,0.79,0.04,0.79,0.29c0,0.17-0.17,0.29-0.48,0.29
			c-0.22,0-0.52,0-1.05,0.13c-1.44,0.29-1.62,1.21-1.62,3.73l-0.09,24.53c0,2.76-0.09,2.97-0.39,2.97c-0.35,0-0.87-0.46-3.19-2.68
			c-0.48-0.42-6.77-6.57-11.39-11.35c-5.06-5.23-9.99-10.51-11.39-12.02L245.05,94.67z"/>
		<path d="M290.05,89.52c0-2.26-0.44-3.18-1-4.4c-0.31-0.67-6.15-9.88-7.68-12.06c-1.09-1.55-2.18-2.6-2.97-3.1
			c-0.65-0.42-1.48-0.67-1.88-0.67c-0.22,0-0.44-0.08-0.44-0.29c0-0.17,0.17-0.29,0.57-0.29c0.83,0,4.1,0.13,4.32,0.13
			c0.31,0,1.96-0.13,3.67-0.13c0.48,0,0.57,0.13,0.57,0.29c0,0.17-0.26,0.21-0.65,0.38c-0.35,0.17-0.57,0.42-0.57,0.75
			c0,0.5,0.22,1,0.57,1.63c0.7,1.21,7.25,12.02,8.03,13.23c0.83-1.76,6.37-10.93,7.25-12.31c0.57-0.88,0.74-1.59,0.74-2.14
			c0-0.59-0.17-1.05-0.7-1.17c-0.39-0.13-0.65-0.21-0.65-0.42c0-0.17,0.26-0.25,0.7-0.25c1.13,0,2.53,0.13,2.88,0.13
			c0.26,0,3.4-0.13,4.23-0.13c0.31,0,0.57,0.08,0.57,0.25c0,0.21-0.22,0.33-0.57,0.33c-0.48,0-1.31,0.17-2.01,0.59
			c-0.87,0.5-1.35,1.01-2.31,2.14c-1.44,1.67-7.55,11.51-8.34,13.31c-0.66,1.51-0.66,2.81-0.66,4.19v3.6c0,0.67,0,2.43,0.13,4.19
			c0.09,1.21,0.48,2.14,1.79,2.3c0.61,0.08,1.57,0.17,1.96,0.17c0.26,0,0.35,0.13,0.35,0.25c0,0.21-0.22,0.34-0.7,0.34
			c-2.4,0-5.15-0.13-5.37-0.13c-0.22,0-2.97,0.13-4.28,0.13c-0.48,0-0.7-0.08-0.7-0.34c0-0.13,0.09-0.25,0.35-0.25
			c0.39,0,0.92-0.08,1.31-0.17c0.87-0.17,1.27-1.09,1.35-2.3c0.13-1.76,0.13-3.52,0.13-4.19V89.52z"/>
		<path d="M318.07,69.76c0.52-1.38,0.7-1.63,0.96-1.63c0.26,0,0.44,0.21,0.96,1.51c0.65,1.59,7.51,18.88,10.17,25.25
			c1.57,3.73,2.84,4.4,3.75,4.65c0.65,0.21,1.31,0.25,1.75,0.25c0.26,0,0.44,0.04,0.44,0.25c0,0.25-0.39,0.34-0.87,0.34
			c-0.66,0-3.84,0-6.85-0.08c-0.83-0.04-1.31-0.04-1.31-0.29c0-0.17,0.13-0.25,0.31-0.29c0.26-0.08,0.52-0.46,0.26-1.13l-4.06-10.3
			c-0.09-0.17-0.17-0.25-0.39-0.25h-9.38c-0.22,0-0.35,0.13-0.44,0.34l-2.62,7.41c-0.39,1.05-0.61,2.05-0.61,2.8
			c0,0.84,0.92,1.21,1.66,1.21h0.44c0.31,0,0.44,0.08,0.44,0.25c0,0.25-0.26,0.34-0.65,0.34c-1.05,0-2.92-0.13-3.4-0.13
			s-2.88,0.13-4.93,0.13c-0.57,0-0.83-0.08-0.83-0.34c0-0.17,0.17-0.25,0.39-0.25c0.31,0,0.92-0.04,1.27-0.08
			c2.01-0.25,2.88-1.84,3.67-3.94L318.07,69.76z M322.61,86.5c0.22,0,0.22-0.13,0.17-0.29l-4.15-11.3c-0.22-0.63-0.44-0.63-0.65,0
			l-3.84,11.3c-0.09,0.21,0,0.29,0.13,0.29H322.61z"/>
		<path d="M358.17,77.43c0-7.68,0-9.06-0.1-10.64c-0.1-1.67-0.51-2.46-2.21-2.81c-0.41-0.1-1.28-0.15-1.75-0.15
			c-0.21,0-0.41-0.1-0.41-0.3c0-0.3,0.26-0.39,0.82-0.39c2.31,0,5.55,0.15,5.8,0.15c0.56,0,4.47-0.15,6.06-0.15
			c3.24,0,6.68,0.3,9.4,2.17c1.28,0.89,3.54,3.3,3.54,6.7c0,3.65-1.59,7.29-6.21,11.38c4.21,5.17,7.7,9.56,10.68,12.61
			c2.77,2.81,4.98,3.35,6.26,3.55c0.98,0.15,1.69,0.15,2,0.15c0.26,0,0.46,0.15,0.46,0.3c0,0.3-0.31,0.39-1.23,0.39h-3.65
			c-2.88,0-4.16-0.25-5.49-0.94c-2.21-1.13-4.01-3.55-6.93-7.24c-2.16-2.71-4.57-6.01-5.6-7.29c-0.21-0.2-0.36-0.3-0.67-0.3
			l-6.32-0.1c-0.26,0-0.36,0.15-0.36,0.39v1.18c0,4.73,0,8.62,0.26,10.69c0.15,1.43,0.46,2.51,2,2.71c0.72,0.1,1.85,0.2,2.31,0.2
			c0.31,0,0.41,0.15,0.41,0.3c0,0.25-0.26,0.39-0.82,0.39c-2.82,0-6.06-0.15-6.32-0.15c-0.05,0-3.29,0.15-4.83,0.15
			c-0.56,0-0.82-0.1-0.82-0.39c0-0.15,0.1-0.3,0.41-0.3c0.46,0,1.08-0.1,1.54-0.2c1.03-0.2,1.28-1.28,1.49-2.71
			c0.26-2.07,0.26-5.96,0.26-10.69V77.43z M362.28,81.72c0,0.25,0.1,0.44,0.36,0.59c0.77,0.44,3.13,0.79,5.39,0.79
			c1.23,0,2.67-0.15,3.85-0.94c1.8-1.18,3.13-3.84,3.13-7.59c0-6.16-3.39-9.85-8.88-9.85c-1.54,0-2.93,0.15-3.44,0.3
			c-0.26,0.1-0.41,0.3-0.41,0.59V81.72z"/>
		<path d="M395.52,80.85c0-6.53,0-7.7-0.09-9.04c-0.09-1.42-0.44-2.09-1.88-2.39c-0.35-0.08-1.09-0.13-1.48-0.13
			c-0.17,0-0.35-0.08-0.35-0.25c0-0.25,0.22-0.34,0.7-0.34c1.96,0,4.71,0.13,4.93,0.13c0.31,0,8.99,0,9.99-0.04
			c0.83-0.04,1.53-0.13,1.88-0.21c0.22-0.04,0.39-0.21,0.61-0.21c0.13,0,0.17,0.17,0.17,0.38c0,0.29-0.22,0.8-0.35,1.97
			c-0.04,0.42-0.13,2.26-0.22,2.76c-0.04,0.21-0.13,0.46-0.31,0.46c-0.26,0-0.35-0.21-0.35-0.54c0-0.29-0.04-1-0.26-1.51
			c-0.31-0.67-0.74-1.17-3.1-1.42c-0.74-0.08-5.5-0.13-5.98-0.13c-0.17,0-0.26,0.13-0.26,0.42v11.55c0,0.29,0.04,0.42,0.26,0.42
			c0.57,0,5.94,0,6.94-0.08c1.05-0.08,1.66-0.17,2.05-0.59c0.31-0.34,0.48-0.54,0.66-0.54c0.13,0,0.22,0.08,0.22,0.34
			c0,0.25-0.22,0.96-0.35,2.34c-0.09,0.84-0.17,2.39-0.17,2.68c0,0.34,0,0.8-0.31,0.8c-0.22,0-0.31-0.17-0.31-0.38
			c0-0.42,0-0.84-0.17-1.38c-0.17-0.59-0.57-1.3-2.27-1.46c-1.18-0.13-5.5-0.21-6.24-0.21c-0.22,0-0.31,0.13-0.31,0.29v3.68
			c0,1.42-0.04,6.28,0,7.16c0.13,2.89,0.79,3.43,5.06,3.43c1.13,0,3.06,0,4.19-0.46c1.14-0.46,1.66-1.3,1.96-3.01
			c0.09-0.46,0.17-0.63,0.39-0.63c0.26,0,0.26,0.34,0.26,0.63c0,0.34-0.35,3.18-0.57,4.06c-0.31,1.09-0.66,1.09-2.36,1.09
			c-6.59,0-9.51-0.25-10.78-0.25c-0.22,0-2.97,0.13-4.28,0.13c-0.48,0-0.7-0.08-0.7-0.34c0-0.13,0.09-0.25,0.35-0.25
			c0.39,0,0.92-0.08,1.31-0.17c0.87-0.17,1.09-1.09,1.27-2.3c0.22-1.76,0.22-5.07,0.22-9.09V80.85z"/>
		<path d="M432.7,95.25c2.53-5.61,8.38-20.22,9.34-23.24c0.22-0.63,0.39-1.21,0.39-1.59c0-0.34-0.13-0.75-0.57-0.96
			c-0.52-0.17-1.18-0.17-1.66-0.17c-0.26,0-0.48-0.04-0.48-0.25c0-0.25,0.26-0.34,0.96-0.34c1.75,0,3.75,0.13,4.28,0.13
			c0.26,0,2.14-0.13,3.4-0.13c0.48,0,0.74,0.08,0.74,0.29c0,0.21-0.17,0.29-0.52,0.29c-0.31,0-1.27,0-2.1,0.5
			c-0.57,0.38-1.22,1.09-2.4,3.94c-0.48,1.17-2.66,6.2-4.89,11.35c-2.66,6.11-4.63,10.63-5.63,12.69c-1.22,2.51-1.4,3.18-1.83,3.18
			c-0.52,0-0.74-0.59-1.57-2.6l-10.69-25.66c-0.96-2.34-1.61-2.81-3.14-3.22c-0.66-0.17-1.4-0.17-1.66-0.17
			c-0.26,0-0.35-0.13-0.35-0.29c0-0.25,0.44-0.29,1.13-0.29c2.1,0,4.58,0.13,5.11,0.13c0.44,0,2.4-0.13,4.06-0.13
			c0.79,0,1.18,0.08,1.18,0.29c0,0.21-0.13,0.29-0.44,0.29c-0.48,0-1.27,0.04-1.66,0.21c-0.48,0.21-0.57,0.54-0.57,0.84
			c0,0.54,0.52,1.84,1.18,3.47L432.7,95.25z"/>
		<path d="M455.61,80.85c0-6.53,0-7.7-0.09-9.04c-0.09-1.42-0.44-2.09-1.88-2.39c-0.35-0.08-1.09-0.13-1.48-0.13
			c-0.17,0-0.35-0.08-0.35-0.25c0-0.25,0.22-0.34,0.7-0.34c1.96,0,4.71,0.13,4.93,0.13c0.31,0,8.99,0,9.99-0.04
			c0.83-0.04,1.53-0.13,1.88-0.21c0.22-0.04,0.39-0.21,0.61-0.21c0.13,0,0.17,0.17,0.17,0.38c0,0.29-0.22,0.8-0.35,1.97
			c-0.04,0.42-0.13,2.26-0.22,2.76c-0.04,0.21-0.13,0.46-0.31,0.46c-0.26,0-0.35-0.21-0.35-0.54c0-0.29-0.04-1-0.26-1.51
			c-0.31-0.67-0.74-1.17-3.1-1.42c-0.74-0.08-5.5-0.13-5.98-0.13c-0.17,0-0.26,0.13-0.26,0.42v11.55c0,0.29,0.04,0.42,0.26,0.42
			c0.57,0,5.94,0,6.94-0.08c1.05-0.08,1.66-0.17,2.05-0.59c0.31-0.34,0.48-0.54,0.66-0.54c0.13,0,0.22,0.08,0.22,0.34
			c0,0.25-0.22,0.96-0.35,2.34c-0.09,0.84-0.17,2.39-0.17,2.68c0,0.34,0,0.8-0.31,0.8c-0.22,0-0.31-0.17-0.31-0.38
			c0-0.42,0-0.84-0.17-1.38c-0.17-0.59-0.57-1.3-2.27-1.46c-1.18-0.13-5.5-0.21-6.24-0.21c-0.22,0-0.31,0.13-0.31,0.29v3.68
			c0,1.42-0.04,6.28,0,7.16c0.13,2.89,0.78,3.43,5.06,3.43c1.14,0,3.06,0,4.19-0.46c1.14-0.46,1.66-1.3,1.96-3.01
			c0.09-0.46,0.17-0.63,0.39-0.63c0.26,0,0.26,0.34,0.26,0.63c0,0.34-0.35,3.18-0.57,4.06c-0.31,1.09-0.66,1.09-2.36,1.09
			c-6.59,0-9.51-0.25-10.78-0.25c-0.22,0-2.97,0.13-4.28,0.13c-0.48,0-0.7-0.08-0.7-0.34c0-0.13,0.09-0.25,0.35-0.25
			c0.39,0,0.92-0.08,1.31-0.17c0.87-0.17,1.09-1.09,1.27-2.3c0.22-1.76,0.22-5.07,0.22-9.09V80.85z"/>
		<path d="M483.42,94.67c0.09,3.43,0.52,4.52,1.7,4.86c0.83,0.21,1.79,0.25,2.18,0.25c0.22,0,0.35,0.08,0.35,0.25
			c0,0.25-0.26,0.34-0.79,0.34c-2.49,0-4.23-0.13-4.63-0.13c-0.39,0-2.23,0.13-4.19,0.13c-0.44,0-0.7-0.04-0.7-0.34
			c0-0.17,0.13-0.25,0.35-0.25c0.35,0,1.14-0.04,1.79-0.25c1.09-0.29,1.31-1.51,1.31-5.32l0.04-23.99c0-1.63,0.13-2.09,0.48-2.09
			c0.35,0,1.09,0.92,1.53,1.34c0.66,0.71,7.16,7.45,13.88,14.36c4.32,4.44,9.08,9.55,10.48,10.93l-0.48-21.27
			c-0.04-2.72-0.35-3.64-1.7-3.98c-0.79-0.17-1.79-0.21-2.14-0.21c-0.31,0-0.35-0.13-0.35-0.29c0-0.25,0.35-0.29,0.87-0.29
			c1.96,0,4.06,0.13,4.54,0.13c0.48,0,1.92-0.13,3.71-0.13c0.48,0,0.79,0.04,0.79,0.29c0,0.17-0.17,0.29-0.48,0.29
			c-0.22,0-0.52,0-1.05,0.13c-1.44,0.29-1.61,1.21-1.61,3.73l-0.09,24.53c0,2.76-0.09,2.97-0.39,2.97c-0.35,0-0.87-0.46-3.19-2.68
			c-0.48-0.42-6.76-6.57-11.39-11.35c-5.06-5.23-9.99-10.51-11.39-12.02L483.42,94.67z"/>
		<path d="M521.04,80.85c0-6.53,0-7.7-0.09-9.04c-0.09-1.42-0.44-2.09-1.88-2.39c-0.35-0.08-1.09-0.13-1.48-0.13
			c-0.17,0-0.35-0.08-0.35-0.25c0-0.25,0.22-0.34,0.7-0.34c1.96,0,4.63,0.13,5.02,0.13c0.39,0,3.01-0.13,4.32-0.13
			c0.48,0,0.7,0.08,0.7,0.34c0,0.17-0.17,0.25-0.35,0.25c-0.31,0-0.57,0.04-1.09,0.13c-1.18,0.17-1.53,0.92-1.62,2.39
			c-0.09,1.34-0.09,2.51-0.09,9.04v5.86c0,6.03,1.4,8.62,3.27,10.34c2.14,1.93,4.1,2.3,6.59,2.3c2.66,0,5.28-1.21,6.85-3.01
			c2.01-2.39,2.53-5.95,2.53-10.26v-5.23c0-6.53,0-7.7-0.09-9.04c-0.09-1.42-0.44-2.09-1.88-2.39c-0.35-0.08-1.09-0.13-1.48-0.13
			c-0.17,0-0.35-0.08-0.35-0.25c0-0.25,0.22-0.34,0.7-0.34c1.96,0,4.36,0.13,4.63,0.13c0.31,0,2.36-0.13,3.67-0.13
			c0.48,0,0.7,0.08,0.7,0.34c0,0.17-0.17,0.25-0.35,0.25c-0.31,0-0.57,0-1.09,0.13c-1.18,0.21-1.53,0.92-1.61,2.39
			c-0.09,1.34-0.09,2.51-0.09,9.04v4.48c0,4.52-0.52,9.55-4.02,12.52c-3.14,2.68-6.42,3.1-8.99,3.1c-1.48,0-5.89-0.17-8.99-2.97
			c-2.14-1.97-3.8-4.9-3.8-11.01V80.85z"/>
		<path d="M559.8,80.85c0-6.53,0-7.7-0.09-9.04c-0.09-1.42-0.44-2.09-1.88-2.39c-0.35-0.08-1.09-0.13-1.48-0.13
			c-0.17,0-0.35-0.08-0.35-0.25c0-0.25,0.22-0.34,0.7-0.34c1.96,0,4.71,0.13,4.93,0.13c0.31,0,8.99,0,9.99-0.04
			c0.83-0.04,1.53-0.13,1.88-0.21c0.22-0.04,0.39-0.21,0.61-0.21c0.13,0,0.17,0.17,0.17,0.38c0,0.29-0.22,0.8-0.35,1.97
			c-0.04,0.42-0.13,2.26-0.22,2.76c-0.04,0.21-0.13,0.46-0.31,0.46c-0.26,0-0.35-0.21-0.35-0.54c0-0.29-0.04-1-0.26-1.51
			c-0.31-0.67-0.74-1.17-3.1-1.42c-0.74-0.08-5.5-0.13-5.98-0.13c-0.17,0-0.26,0.13-0.26,0.42v11.55c0,0.29,0.04,0.42,0.26,0.42
			c0.57,0,5.94,0,6.94-0.08c1.05-0.08,1.66-0.17,2.05-0.59c0.31-0.34,0.48-0.54,0.66-0.54c0.13,0,0.22,0.08,0.22,0.34
			c0,0.25-0.22,0.96-0.35,2.34c-0.09,0.84-0.17,2.39-0.17,2.68c0,0.34,0,0.8-0.31,0.8c-0.22,0-0.31-0.17-0.31-0.38
			c0-0.42,0-0.84-0.17-1.38c-0.17-0.59-0.57-1.3-2.27-1.46c-1.18-0.13-5.5-0.21-6.24-0.21c-0.22,0-0.31,0.13-0.31,0.29v3.68
			c0,1.42-0.04,6.28,0,7.16c0.13,2.89,0.79,3.43,5.06,3.43c1.14,0,3.06,0,4.19-0.46c1.14-0.46,1.66-1.3,1.96-3.01
			c0.09-0.46,0.17-0.63,0.39-0.63c0.26,0,0.26,0.34,0.26,0.63c0,0.34-0.35,3.18-0.57,4.06c-0.31,1.09-0.66,1.09-2.36,1.09
			c-6.59,0-9.51-0.25-10.78-0.25c-0.22,0-2.97,0.13-4.28,0.13c-0.48,0-0.7-0.08-0.7-0.34c0-0.13,0.09-0.25,0.35-0.25
			c0.39,0,0.92-0.08,1.31-0.17c0.87-0.17,1.09-1.09,1.27-2.3c0.22-1.76,0.22-5.07,0.22-9.09V80.85z"/>
	</g>
</g>
</svg>
